<?xml version="1.0" encoding="utf-8"?>
<!-- Generator: Adobe Illustrator 24.2.3, SVG Export Plug-In . SVG Version: 6.00 Build 0)  -->
<svg version="1.1" id="Layer_1" xmlns="http://www.w3.org/2000/svg" xmlns:xlink="http://www.w3.org/1999/xlink" x="0px" y="0px"
	 viewBox="0 0 916 201" style="enable-background:new 0 0 916 201;" xml:space="preserve">
<style type="text/css">
	.st0{fill:url(#SVGID_1_);}
	.st1{fill:url(#SVGID_2_);}
	.st2{fill:url(#SVGID_3_);}
	.st3{fill:url(#SVGID_4_);}
	.st4{fill:url(#SVGID_5_);}
	.st5{fill:url(#SVGID_6_);}
</style>
<linearGradient id="SVGID_1_" gradientUnits="userSpaceOnUse" x1="0" y1="126.8" x2="917.4022" y2="126.8">
	<stop  offset="0" style="stop-color:#216BF7"/>
	<stop  offset="0.2647" style="stop-color:#391DCE"/>
	<stop  offset="0.3128" style="stop-color:#5117BC"/>
	<stop  offset="0.4001" style="stop-color:#760EA1"/>
	<stop  offset="0.4705" style="stop-color:#8D098F"/>
	<stop  offset="0.5146" style="stop-color:#960789"/>
	<stop  offset="0.6626" style="stop-color:#BD0958"/>
	<stop  offset="0.7489" style="stop-color:#D00A41"/>
	<stop  offset="1" style="stop-color:#F08A2E"/>
</linearGradient>
<path class="st0" d="M220.9,93l73.9-38.8l-19,145.2h-67.7L220.9,93z"/>
<linearGradient id="SVGID_2_" gradientUnits="userSpaceOnUse" x1="0" y1="99.55" x2="917.4022" y2="99.55">
	<stop  offset="0" style="stop-color:#216BF7"/>
	<stop  offset="0.2647" style="stop-color:#391DCE"/>
	<stop  offset="0.3128" style="stop-color:#5117BC"/>
	<stop  offset="0.4001" style="stop-color:#760EA1"/>
	<stop  offset="0.4705" style="stop-color:#8D098F"/>
	<stop  offset="0.5146" style="stop-color:#960789"/>
	<stop  offset="0.6626" style="stop-color:#BD0958"/>
	<stop  offset="0.7489" style="stop-color:#D00A41"/>
	<stop  offset="1" style="stop-color:#F08A2E"/>
</linearGradient>
<path class="st1" d="M358.7,199.4h-61.6L322.7-0.3H384l56.4,105.5L454.3-0.3h61l-25.3,199.7h-61L372.3,94L358.7,199.4z"/>
<linearGradient id="SVGID_3_" gradientUnits="userSpaceOnUse" x1="1.818989e-12" y1="26.45" x2="917.4022" y2="26.45">
	<stop  offset="0" style="stop-color:#216BF7"/>
	<stop  offset="0.2647" style="stop-color:#391DCE"/>
	<stop  offset="0.3128" style="stop-color:#5117BC"/>
	<stop  offset="0.4001" style="stop-color:#760EA1"/>
	<stop  offset="0.4705" style="stop-color:#8D098F"/>
	<stop  offset="0.5146" style="stop-color:#960789"/>
	<stop  offset="0.6626" style="stop-color:#BD0958"/>
	<stop  offset="0.7489" style="stop-color:#D00A41"/>
	<stop  offset="1" style="stop-color:#F08A2E"/>
</linearGradient>
<path class="st2" d="M233.6-0.3h68.1l-6.8,53.5h-68.2L233.6-0.3z"/>
<linearGradient id="SVGID_4_" gradientUnits="userSpaceOnUse" x1="0" y1="101.35" x2="917.4022" y2="101.35" gradientTransform="matrix(1 0 0 -1 0 202)">
	<stop  offset="0" style="stop-color:#216BF7"/>
	<stop  offset="0.2647" style="stop-color:#391DCE"/>
	<stop  offset="0.3128" style="stop-color:#5117BC"/>
	<stop  offset="0.4001" style="stop-color:#760EA1"/>
	<stop  offset="0.4705" style="stop-color:#8D098F"/>
	<stop  offset="0.5146" style="stop-color:#960789"/>
	<stop  offset="0.6626" style="stop-color:#BD0958"/>
	<stop  offset="0.7489" style="stop-color:#D00A41"/>
	<stop  offset="1" style="stop-color:#F08A2E"/>
</linearGradient>
<path class="st3" d="M192.4,161.5c15.2-40.3-6.6-58-23.3-61.8c8.9-3.9,31.1-7.8,30-50.8C198,5.7,163.9,0,147.6,0
	C131.4,0,26.3,0,26.3,0L0,201.3c0,0,97-0.8,110-0.8C122.9,200.5,177.1,201.8,192.4,161.5z M81.7,48.4c0,0,35.3,0,37.5,0
	c2,0,15.3,0.2,15.1,14.2c-0.1,14-16,14.2-16,14.2H78.4L81.7,48.4z M69.3,152.2l3.6-33h42.3c0,0,20.9,0.5,19.3,16.5
	c-1.4,16-23.3,16.5-28,16.5C101.8,152.2,69.3,152.2,69.3,152.2z"/>
<linearGradient id="SVGID_5_" gradientUnits="userSpaceOnUse" x1="9.094947e-13" y1="99.55" x2="917.4022" y2="99.55">
	<stop  offset="0" style="stop-color:#216BF7"/>
	<stop  offset="0.2647" style="stop-color:#391DCE"/>
	<stop  offset="0.3128" style="stop-color:#5117BC"/>
	<stop  offset="0.4001" style="stop-color:#760EA1"/>
	<stop  offset="0.4705" style="stop-color:#8D098F"/>
	<stop  offset="0.5146" style="stop-color:#960789"/>
	<stop  offset="0.6626" style="stop-color:#BD0958"/>
	<stop  offset="0.7489" style="stop-color:#D00A41"/>
	<stop  offset="1" style="stop-color:#F08A2E"/>
</linearGradient>
<path class="st4" d="M747.9-0.3H916l-6.5,53.5h-107l-1.7,17.3h88.3l-7.2,55H794l-3.1,18.9h107.3l-6.9,55H722.9L747.9-0.3z"/>
<linearGradient id="SVGID_6_" gradientUnits="userSpaceOnUse" x1="-9.094947e-13" y1="102.4" x2="917.4022" y2="102.4" gradientTransform="matrix(1 0 0 -1 0 202)">
	<stop  offset="0" style="stop-color:#216BF7"/>
	<stop  offset="0.2647" style="stop-color:#391DCE"/>
	<stop  offset="0.3128" style="stop-color:#5117BC"/>
	<stop  offset="0.4001" style="stop-color:#760EA1"/>
	<stop  offset="0.4705" style="stop-color:#8D098F"/>
	<stop  offset="0.5146" style="stop-color:#960789"/>
	<stop  offset="0.6626" style="stop-color:#BD0958"/>
	<stop  offset="0.7489" style="stop-color:#D00A41"/>
	<stop  offset="1" style="stop-color:#F08A2E"/>
</linearGradient>
<path class="st5" d="M635.9,54.7c13.5,0,85.7,0,85.7,0l6.6-55c0,0-96.7,0-121.1,0c-24.3,0-45.3,13.7-66.7,34.9
	C519.2,55.8,517,95,517,102.9c0,7.9,0,35.2,24.2,65c24.2,29.9,65.8,31.6,76.1,31.6c9.3,0,85.7,0,85.7,0l14.8-114.8h-87.2
	c0,0,16.4,30.5,21.5,40.7c-9.3,19-20.1,18.6-32.6,18.9c-12.6,0.2-23.4-9.4-28.5-13.8c-5-4.4-19.5-24.5-7.1-50.6
	C595.9,53.8,622.4,54.7,635.9,54.7z"/>
</svg>
