<?xml version="1.0" encoding="utf-8"?>
<!-- Generator: Adobe Illustrator 24.2.3, SVG Export Plug-In . SVG Version: 6.00 Build 0)  -->
<svg version="1.1" id="Layer_1" xmlns="http://www.w3.org/2000/svg" xmlns:xlink="http://www.w3.org/1999/xlink" x="0px" y="0px"
	 viewBox="0 0 901.6 272.1" style="enable-background:new 0 0 901.6 272.1;" xml:space="preserve">
<style type="text/css">
	.st0{fill:url(#SVGID_1_);}
	.st1{fill:url(#SVGID_2_);}
	.st2{fill:#0088E6;}
</style>
<g id="Layer_1_1_">
	
		<linearGradient id="SVGID_1_" gradientUnits="userSpaceOnUse" x1="408.6389" y1="-511.3171" x2="408.6389" y2="-313.1934" gradientTransform="matrix(1 0 0 -1 0 -244)">
		<stop  offset="0" style="stop-color:#0072FF"/>
		<stop  offset="1" style="stop-color:#0099FF"/>
	</linearGradient>
	<path class="st0" d="M744.2,60.3c-37.3,0-54.3,19-54.3,19v-15h-86.5v132.5c0,0-9.8,4.3-16.5,2.5s-6.7-11.3-6.7-11.3V64.3H494v17.8
		c0,0-14.8-15.8-32.3-19.2c-26.4-5-60.5-1.7-88.5,32.8s-19.8,86.5-19.8,86.5s-23.3,14.2-41.7,14.2c-18.3,0-17.3-16.2-17.3-16.2V130
		h57V64.3h-58V15h-85.7v140.2c0,0-4.6-28.4-70.5-48.8c-32.4-10-54.7-12.8-50.8-27c3.2-11.7,22.5-10.7,22.5-10.7
		c39.3,0,78.8,26.4,78.8,26.4V15.7c0,0-5.5-2.5-14.8-5.7C145.3,0.9,82.2-12.3,28.7,24.2C3.1,46.1-2.4,76.8,0.8,101.4
		C2.7,114,7.1,124.9,13,132c19.2,22.7,62.5,32.3,82.7,36.7c20.2,4.3,30.8,9.3,30.8,19.8S113.4,206,83,201.2
		C52.7,196.3,23.7,176,23.7,176l-21,72.7c0,0,49.8,29.5,122.7,21.3c72.8-8.2,83.8-63,83.8-63c0.3-5.3-3.5,58.3,65.3,64.5
		c61.2,5.5,104.3-28.7,104.3-28.7s18.7,28.5,63.3,28.5c44.7,0,58.7-27.8,58.7-27.8s6,27.8,52.3,27.8c42.5,0,50.3-7,50.3-7v3h86.3
		V146c0,0,13.4-10.6,29.8-4.8c13.1,4.7,12.8,21.9,12.8,21.9v104.2h85V136.7c0,0-1.7-24.5-11.2-41.8S781.5,60.3,744.2,60.3z
		 M494.3,189.3c0,0-8.5,8-26.5,8s-28.5-13.3-28.5-30.7c0-17.3,10.5-31.8,28.5-31.8s26.5,8,26.5,8V189.3z"/>
	
		<linearGradient id="SVGID_2_" gradientUnits="userSpaceOnUse" x1="864.6" y1="-512.7" x2="864.6" y2="-243.2989" gradientTransform="matrix(1 0 0 -1 0 -244)">
		<stop  offset="0" style="stop-color:#0072FF"/>
		<stop  offset="1" style="stop-color:#0099FF"/>
	</linearGradient>
	<path class="st1" d="M863.3,197.7c-31.7,0-35.8,25.4-35.8,37.8c0,12,5.8,33.2,36.6,33.2s37.6-20.4,37.6-34.9
		C901.6,219.2,894.9,197.7,863.3,197.7z"/>
</g>
<g id="Layer_3">
	<g>
		<path class="st2" d="M388,252.6c-1.4-1.7-2.1-2.8-2.1-2.8s-0.2,0.1-0.5,0.4C386.2,251,387,251.8,388,252.6z"/>
		<path class="st2" d="M696.9,86.3c0,0,17-19,54.3-19c21.9,0,36.3,5.9,46.3,14.3c-10.1-11.9-25.7-21.3-53.3-21.3
			c-23.7,0-37.4,6.3-47.3,13.2c-4.2,2.9-7,5.8-7,5.8L696.9,86.3z"/>
		<path class="st2" d="M300.4,71.3h51v-7h-58L300.4,71.3z"/>
		<path class="st2" d="M494.3,189.3c0,0-8.5,8-26.5,8c-6.4,0-14.3-3-21.3-9.2c4.8,7.1,17.9,16.2,28.3,16.2c18,0,26.5-8,26.5-8v-46.5
			c0,0-2.9-4-7-6.9V189.3z"/>
		<path class="st2" d="M594.9,205.3c6.7,1.8,15.5-1.5,15.5-1.5V71.3h79.5v-7h-86.5v132.5c0,0-11.6,3-18.2,1.8
			C587.8,201.3,591.3,204.4,594.9,205.3z"/>
		<path class="st2" d="M358.4,123.7c3.2-9.6,7.9-19.3,14.8-27.8c28-34.5,62.1-37.8,88.5-32.8c17.6,3.3,32.3,19.2,32.3,19.2v-18h86.2
			v7H501v17.8c0,0-14.8-15.8-32.3-19.2c-26.4-5-60.5-1.7-88.5,32.8s-19.8,86.5-19.8,86.5s-23.3,14.2-41.7,14.2
			c-9.6,0-13.9-4.5-15.8-8.7c2.3,1,5.2,1.7,8.8,1.7c18.3,0,41.7-14.2,41.7-14.2s-3.3-23.7,1.5-45.2
			C356.6,128.5,358.4,123.7,358.4,123.7z"/>
		<path class="st2" d="M732.5,267.3h7v-97.2c0,0,0-18.2-14.9-26.1c8.1,6.3,7.9,19.1,7.9,19.1V267.3z"/>
		<path class="st2" d="M19.7,138.6c-5.8-7.1-10.1-17.9-11.9-30.2C4.6,83.8,10.1,53,35.6,31.1C89.2-5.3,152.3,7.9,179.9,17
			c3,1,5.6,2,7.8,2.8v-4.1c0,0-5.5-2.5-14.8-5.7C145.3,0.9,82.2-12.3,28.7,24.2C3.1,46.1-2.4,76.8,0.8,101.4
			C2.7,114,7.1,124.9,13,132C15,134.3,17.3,136.5,19.7,138.6z"/>
		<path class="st2" d="M30.7,183c0,0,29,20.3,59.3,25.2c30.3,4.8,43.5-2.2,43.5-12.7c0-5.3-4.9-11-9.1-14.4c0.8,1.6,2.1,5.4,2.1,7.4
			c0,10.5-13.2,17.5-43.5,12.7C52.7,196.3,23.7,176,23.7,176l-21,72.7c0,0,2.7,1.6,7.9,4L30.7,183z"/>
		<path class="st2" d="M214.7,169.2V22h78.7v-7h-85.7v139.4C212.4,161.8,214.7,169.2,214.7,169.2z"/>
	</g>
	<path class="st2" d="M834.4,242.5c0-12.4,4.2-37.8,35.8-37.8c11.1,0,19.1,2.7,24.9,6.7c-5.5-7.8-15.2-13.7-31.9-13.7
		c-31.7,0-35.8,25.4-35.8,37.8c0,7.9,2.5,19.7,12.9,26.9C835.7,255.8,834.4,248.1,834.4,242.5z"/>
</g>
</svg>
