<?xml version="1.0" encoding="utf-8"?>
<!-- Generator: Adobe Illustrator 24.2.3, SVG Export Plug-In . SVG Version: 6.00 Build 0)  -->
<svg version="1.1" id="Layer_1" xmlns="http://www.w3.org/2000/svg" xmlns:xlink="http://www.w3.org/1999/xlink" x="0px" y="0px"
	 viewBox="0 0 1000 423.1" style="enable-background:new 0 0 1000 423.1;" xml:space="preserve">
<style type="text/css">
	.st0{fill:#EEEEEE;}
	.st1{fill:#DDDDDD;}
</style>
<g id="Layer_5">
	<polygon class="st0" points="30.7,410.1 25,422.9 59.8,422.9 67.8,410.1 	"/>
	<polygon class="st0" points="89.2,390.2 155.4,390.2 157.2,383.3 94,381.3 	"/>
	<polygon class="st0" points="147.8,410.1 149.5,421 173.1,421 174.4,410.1 	"/>
	<polygon class="st0" points="176.7,410.1 174.4,421 199.7,421 205.2,410.1 	"/>
	<polygon class="st0" points="230.9,361.1 241.2,421 272.7,421 276.5,408.2 239.4,341.1 229.3,360.2 	"/>
	<path class="st0" d="M308.9,373c0,0-8.3,49.8,23.4,50s44.6-0.6,50.6-21.4c6-20.8-15.9-11.3-15.9-11.3S313.9,388.9,308.9,373z"/>
	<polygon class="st0" points="349.8,368.2 351.9,375.6 367.1,378.3 371,368.2 360.4,364.2 	"/>
	<path class="st0" d="M389.1,323.8l-4.5,11.7c0,0-13.6-6.9-38.6,3.9c-25,10.8,31-22,31-22L389.1,323.8z"/>
	<path class="st0" d="M434,334.9c0,0,17.2-4.9,29.7,0s-9.3-13.5-9.3-13.5h-19.2L434,334.9z"/>
	<polygon class="st0" points="399.4,410.1 397,423 423.6,423 426,407.1 	"/>
	<polygon class="st0" points="430.4,379.3 434,379.3 452,417.9 491,418.6 491,410.1 437.7,369.6 424.1,371.3 	"/>
	<polygon class="st0" points="549.8,410.2 549.8,418.6 522.6,418.6 522.6,408.9 	"/>
	<polygon class="st0" points="483.2,303.6 483.2,317.3 524,367.6 524,350.8 	"/>
	<polygon class="st0" points="649.9,410.1 654.2,418.6 682.4,418.6 676.5,405.9 	"/>
	<polygon class="st0" points="672.1,381 670.9,367.6 701.3,408.9 704.5,388.3 672,347.7 656.6,346.3 	"/>
	<polygon class="st0" points="729.4,410.1 736.4,418.6 765.1,418.6 762.5,410.1 	"/>
	<polygon class="st0" points="800.7,320.9 800.7,330.6 772.5,330.6 767,318.4 	"/>
	<polygon class="st0" points="818.6,363.3 818.6,372.1 789,372.1 785.8,362.3 	"/>
	<polygon class="st0" points="785.9,410.1 789.6,418.6 844.3,418.6 844.3,410.1 	"/>
	<polygon class="st0" points="866.5,410.1 873.8,418.6 908,418.6 901.9,410.1 	"/>
	<polygon class="st0" points="941.3,410.1 950.9,418.6 975,418.6 974,410.1 	"/>
</g>
<g id="Layer_2_1_">
	<polygon class="st1" points="176.7,410.1 205.2,410.1 239.3,343.7 250,410.1 275.7,410.1 319.8,303.6 294.5,303.6 267.1,359.7 
		257.8,303.6 231.1,303.6 	"/>
	<path class="st1" d="M395.5,303.6c0,0-23.1-9.9-44.4,0s-45,51-42,70.8s8.2,36.6,34.1,35.8s38.6-9,40.8-14.2
		c2.1-5.2,15.5-49.6,15.5-49.6h-42.3l-7.3,21.9H369c0,0,1.2,18.9-16.4,18s-21-8.8-13.7-29.3s12.8-30.3,50.2-33
		C395.5,303.6,395.5,303.6,395.5,303.6z"/>
	<polygon class="st1" points="578.3,303.6 549.8,356.9 549.8,410.2 522.6,410.2 522.6,356.9 483.2,303.6 509.7,303.6 535,336 
		549.8,303.6 	"/>
	<polygon class="st1" points="626.9,301 649.9,410.1 679.1,410.2 665.1,351.6 702.5,400.3 711.9,345 729.4,410.1 762.5,410.1 
		722.8,301 696.3,301 693.2,354.7 652.3,301 	"/>
	<polygon class="st1" points="738,301 785.9,410.1 844.3,410.1 831.4,385.5 802.2,385.5 791.1,363.3 818.6,363.3 806.5,344.2 
		781.2,344.2 771.1,320.9 800.7,320.9 787.8,301 	"/>
	<polygon class="st1" points="804.2,301 866.5,410.1 901.9,410.1 860.7,350.8 941.3,410.1 974,410.1 889.1,301 860.3,301 
		893.8,345.8 830.7,301 	"/>
	<path class="st1" d="M170.7,303.6l-140,106.6h37.1l27.6-25.7h60l-7.6,25.7h26.7l10.9-106.6H170.7z M158.1,361.1H125l34.8-25.7
		L158.1,361.1z"/>
	<path class="st1" d="M459.8,374.2c0,0,26.9-20.3,26.9-38.2s-11.3-32.5-17.1-32.5c-5.8,0-51,0-51,0l-19.1,106.6h26.1l5.5-34.8h4.3
		l24.1,34.8H491L459.8,374.2z M450.3,354.7c-4.8,0-17.7,0-17.7,0l4-29.4c0,0,3,0,10.9,0c14.4,0,16.2,7.1,14.9,14
		C459.1,356.5,450.3,354.7,450.3,354.7z"/>
</g>
<g id="Layer_4">
	<polygon class="st0" points="128.8,261.7 121.7,276.6 355.7,276.6 363,256.5 	"/>
	<path class="st0" d="M298.3,56.2L296,67.6c0,0,3.5,0,9.3,0s11.1,2.9,9,6.1s14.1,3.5,14.1,3.5V53.3L298.3,56.2z"/>
	<rect x="420.6" y="97.7" class="st0" width="121.8" height="12.7"/>
	<path class="st0" d="M540.9,72.8c0,0,39.7-28.6,73.9,0s-17.7-32.1-17.7-32.1L557.3,44l-29,9.3L540.9,72.8z"/>
	<path class="st0" d="M740.2,84.9c0,0,19.5,56.1-47.8,68.1s-91.4,14.5-102.8,15.5s-14.7,2.1-13.9,9.6s-50.5,3.8-50.5,3.8l18.8-28.6
		L740.2,84.9z"/>
	<polygon class="st0" points="393.4,261.7 393.4,276.6 922.4,276.6 911.8,261.7 	"/>
</g>
<g id="Layer_3">
	<path class="st1" d="M339.5,10.8h87.8c0,0-62.7,149.1-72.2,170.9s-18.8,38.1,0,38.8s21.5,0,21.5,0L361,261.7H128.8l28.9-37.5
		c0,0-3.1,1.2,16.9-1.5c20-2.8,30.5-5.2,51.7-32.6S298,97.2,306.9,84.6s20.3-28.3,5.8-28.3s-14.5,0-14.5,0L339.5,10.8z"/>
	<path class="st1" d="M420.6,97.7h121.8c0,0-9-46.9,14-47.9s39.5-4,50.9,6c11.5,10,11.5,34.5-12.5,46.9s-64.9,28-91.9,39
		c-27,11-61.9,25.7-90.4,69.3c-13.1,20.2-19.2,50.7-19.2,50.7h518.4l-97.2-104.1h-57.4c0,0,12.9,20.5-15.2,20.5
		c-28.1,0-209.7,0-209.7,0s6.4-18.7,51.6-19.9s113.6-14.1,135.3-32.8c21.7-18.7,28.7-41,11.7-63.3S681.6-1.2,596.1,0
		S462.5,23.8,420.6,97.7z"/>
</g>
</svg>
