<?xml version="1.0" encoding="utf-8"?>
<!-- Generator: Adobe Illustrator 24.2.3, SVG Export Plug-In . SVG Version: 6.00 Build 0)  -->
<svg version="1.1" id="Layer_1" xmlns="http://www.w3.org/2000/svg" xmlns:xlink="http://www.w3.org/1999/xlink" x="0px" y="0px"
	 viewBox="0 0 1000 684.3" style="enable-background:new 0 0 1000 684.3;" xml:space="preserve">
<style type="text/css">
	.st0{fill-rule:evenodd;clip-rule:evenodd;fill:#DDDDDD;}
</style>
<g>
	<path class="st0" d="M601.5,0.2c-54-3.1-92.2,23.4-100.8,52.1l-64.2,216.3c-10,40,32,48.8,60.8,47l-86.8,293.8
		c-13,54.7,14.3,77.5,75,73.9c49.8-0.8,88.8-25.5,95.2-44.1l90.5-303.3H815c12.3,25.4-1.1,54-22.2,84H686.5l-76.2,257.5l125.5-0.1
		c30.4-0.8,69.1-26.6,84.5-70l27.3-92.1c6.8-21.8,1.5-41.1-23.1-56.3c27.3-13.9,45.3-32,55.7-53.7l19.6-67.2
		c10.9-45.8-1.4-72-41.8-74.6l59.2-199.8h40.5l17.2-57.8H842l-17.1,57.9h40.3L806,263.4h-57.7L824.6,5.8h-56l-35.1,118.7h-28.1
		L740.5,5.8h-55.1l-91.6,309.7H613l-82.9,280.6c-4.5,14.9-46.9,16.4-42.2,0l99.2-332.7h-8.6L616.2,136h-55l-35.8,121.6
		c-2.8,9.3-34.9,9.7-32,0L549.5,68c3.9-13.6,15.5-15.7,33.9-7.2L601.5,0.2L601.5,0.2L601.5,0.2z M705.9,602.1l30.7-104h32.8
		c10.9,21.6-2.3,61.2-31.5,104.1L705.9,602.1L705.9,602.1L705.9,602.1z M688.3,182.6h28.1l-24,81h-28.1L688.3,182.6L688.3,182.6
		L688.3,182.6z M431.4,6h54.5l-76.2,257.6h9.7L319.2,602.2h72.4l-22.2,75.3H222.7l122.4-413.9h10.1L431.4,6L431.4,6L431.4,6z M292,6
		h112.9l-17.2,57.9h-58.2l-18,60.8h58.2l-17.1,57.9h-58.2L270.6,263c39.2,11.9,23.8,77,1.2,148.3h-75.3l20.6-66.5
		c5.8-18-32.3-20.9-38.3,0L104,596.9c-3.6,12.4,12.7,11.5,27.2,11.6l-21.3,75.6c-51.5,0.7-99.2-2.7-80.9-78.7L110.6,329
		c15.9-46,50.5-72,107.7-74L292,6L292,6L292,6z"/>
</g>
</svg>
