<?xml version="1.0" encoding="utf-8"?>
<!-- Generator: Adobe Illustrator 24.2.3, SVG Export Plug-In . SVG Version: 6.00 Build 0)  -->
<svg version="1.1" id="Layer_1" xmlns="http://www.w3.org/2000/svg" xmlns:xlink="http://www.w3.org/1999/xlink" x="0px" y="0px"
	 viewBox="0 0 1000 759.6" style="enable-background:new 0 0 1000 759.6;" xml:space="preserve">
<style type="text/css">
	.st0{fill-rule:evenodd;clip-rule:evenodd;fill:#DDDDDD;}
</style>
<g>
	<path class="st0" d="M154.6,11.8h-62v135.3h19c18.2,0,30.4-19.4,37.3-58.5l1.1-5.7h11.8v138.8h-12.2c0-1.5-0.4-3-1.1-5.7
		c-7.6-37.6-20.1-56.6-38-56.6H92.7V313h33.1v12.2H25V313h25.8V11.8H25V0h192.7v100.8h-12.5c-1.5-6.5-3.4-14.8-6.1-25.5
		c-9.9-42.6-21.3-63.5-35-63.5H154.6L154.6,11.8z M889.5,56.3h34.2v47.5h39.5v10.6h-39.5v158.9c0,15.2,1.5,26.2,4.6,33.1
		c3,6.5,7.6,9.5,14.4,9.5c8.7,0,14.8-4.9,18.2-15.6c3.8-10.6,5.7-29.3,5.7-55.9v-5.6h8c0,1.5,0,4.2,0,8.7c0,4.2,0.4,7.6,0.4,10.3
		c0,26.6-3.8,45.6-10.6,57c-6.8,11.4-18.2,17.1-34.2,17.1c-14.8,0-25.5-5.3-31.6-15.6c-6.1-10.3-9.1-30.4-9.1-60.4V114.5H869v-10.7
		h20.5L889.5,56.3L889.5,56.3z M861.3,112.9c-8.4-4.6-16.7-8-25.5-10.3c-8.4-2.3-16.7-3.8-24.7-3.8c-21.3,0-38.4,6.1-51.3,17.9
		c-13.3,11.8-19.8,27-19.8,45.2c0,12.9,3.4,23.6,10.3,32.3c6.8,8.4,22.4,19,46.4,31.2c19.8,10.3,32.3,18.6,37.6,25.5
		c5.3,6.8,8.4,15.2,8.4,25.5c0,12.9-4.2,23.6-12.2,32.7c-8,8.7-18.2,13.3-30.4,13.3c-12.5,0-21.3-3.8-26.6-11.4
		c-4.9-7.6-10.6-30.8-17.5-70.3h-14v67.7c6.1,7.2,14.4,12.9,25.1,17.1c10.3,4.2,21.7,6.5,33.5,6.5c21.3,0,38.4-6.8,51.7-20.1
		c13.3-13.3,19.8-30,19.8-50.2c0-14.1-3.4-25.8-9.9-35.7c-6.8-9.9-18.6-19.4-35.4-28.9c-4.2-2.7-10.6-5.7-18.2-9.9
		c-26.2-14.1-39.2-28.1-39.2-42.6c0-10.6,3.4-19.8,11-26.2c7.2-6.8,16.7-10.3,28.5-10.3c16,0,27.8,16,35,47.9
		c1.9,8.7,3.4,16,4.9,21.3h12.5L861.3,112.9L861.3,112.9z M629.1,185.5l68.8,0.4c0.4-3.4,0.4-6.1,0.4-9.1c0-2.7,0-5.3,0-7.6
		c0-20.9-2.3-36.9-7.6-47.1c-4.9-10.3-12.5-15.2-22.8-15.2c-11.4,0-20.5,6.8-27.4,20.5S629.8,160.5,629.1,185.5L629.1,185.5z
		 M725.2,238.8h9.1c-1.9,30-8.4,52.8-19.8,69.2c-11,16-26.2,24-45.6,24c-21.7,0-39.5-11-54-33.5c-14.4-22-21.7-50.2-21.7-84.4
		c0-33.8,7.2-62,21.7-83.6c14.1-22,31.9-32.7,53.6-32.7c20.1,0,35.7,8,46.8,24.3c11,16.3,16.7,39.2,16.7,68.4v6.1H627.9
		c0,1.5,0,4.6,0,8.7c-0.4,4.2-0.4,7.6-0.4,9.9c0,34.6,3.8,60.4,11.8,77.9c7.6,17.5,19,26.2,33.8,26.2c14.4,0,26.6-6.8,35.7-21.3
		C718,284,723.3,264.2,725.2,238.8L725.2,238.8z M471.7,325.8v-11h18.6V114.5h-18.6v-10.7h49.8v35c3.4-12.9,9.1-23.2,17.1-30.4
		s17.1-10.6,27.8-10.6c4.2,0,8,0.4,11.8,1.9c3.8,1.1,7.6,3,11,5.7v81l-11-0.4c-0.4-2.7-1.1-6.8-1.9-11.8
		c-8-41.1-15.6-61.6-23.2-61.6c-8.7,0-16,7.2-21.7,21.3c-6.1,14.4-9.1,33.1-9.1,56.3v124.6h27.4v11H471.7L471.7,325.8z M350.4,325.8
		v-11H369V114.5h-18.6v-10.7h50.2v35c3.4-12.9,9.1-23.2,17.1-30.4s17.1-10.6,27.8-10.6c4.2,0,8,0.4,11.8,1.9c3.8,1.1,7.6,3,11.4,5.7
		v81l-11-0.4c-0.8-2.7-1.5-6.8-2.3-11.8c-7.6-41.1-15.6-61.6-23.2-61.6c-8.4,0-16,7.2-21.7,21.3c-6.1,14.4-8.7,33.1-8.7,56.3v124.6
		h27v11H350.4L350.4,325.8z M900.9,470.7c-12.2,0-21.3,8.4-27,25.1c-6.1,16.7-8.7,42.2-8.7,76.8c0,36.9,2.7,63.5,8.7,80.2
		c5.7,16.7,15.2,24.7,27.8,24.7c11.8,0,20.9-8.4,26.2-25.8c5.7-17.5,8.4-44.9,8.4-82.1c0-32.7-3-57.4-8.7-74.1
		C921.4,478.6,912.7,470.7,900.9,470.7L900.9,470.7z M887.2,759.6h-73v-11h19.4V474.1h-19.4v-11h48.3v31.6
		c3.8-12.2,9.1-21.3,16.7-27.8c7.2-6.5,16-9.9,25.8-9.9c19.4,0,35.4,10.6,47.9,31.9c12.2,21.3,18.2,49,18.2,83.6s-6.1,62.7-19,85.2
		c-12.9,22.4-28.5,33.5-47.1,33.5c-9.1,0-17.1-2.7-24.3-8c-6.8-5.7-12.5-13.3-17.1-23.6v89h23.6L887.2,759.6L887.2,759.6z
		 M564.4,685.1v-11.4h19V474.1h-19v-11h47.9v38c3.8-14.1,9.5-24.7,17.5-32.7c8-7.6,17.5-11.4,28.5-11.4c12.2,0,22,3.8,29.3,11
		c7.2,7.2,11.8,18.2,14.1,33.1c3.8-14.1,9.5-24.7,17.5-32.7c8-7.6,17.5-11.4,28.5-11.4c16.7,0,28.5,6.1,35.4,17.9
		c6.8,11.8,10.3,35.4,10.3,70.3v128.5h19v11.4H747v-11.4h15.6V536c0-25.8-1.9-43-5.3-51.3c-3.8-8.4-10.3-12.2-19-12.2
		c-11,0-19.8,6.5-25.8,19.8c-5.7,13.3-8.7,32.3-8.7,56.6v124.7H722V685h-64.6v-11.4H673V517.4c0-15.2-1.9-26.6-6.1-33.8
		c-3.8-7.6-10.3-11-18.6-11c-11,0-19.4,6.5-25.1,19.4c-6.1,13.3-9.1,31.9-9.1,56.6v125.1h18.2v11.4H564.4L564.4,685.1z M395.6,463.1
		h52.8v168c0,14.8,1.9,25.9,6.1,33.5s10.3,11.4,18.2,11.4c11,0,19.4-6.8,25.5-20.1c5.7-13.3,8.7-31.9,8.7-56.3V474.1h-24.7v-11h58.2
		v210.6h19v11.4h-50.6v-39.2c-3,13.7-8.7,25.1-16.7,33.1c-8.4,8.4-18.2,12.2-29.3,12.2c-17.5,0-30-6.1-37.3-17.9
		c-7.2-12.2-10.6-35.4-10.6-70.7V474.1h-19.4L395.6,463.1L395.6,463.1z M270.2,106.9c-14.1,0-24,8.4-30,24.7
		c-6.1,16.7-9.5,44.5-9.5,82.9s3.4,66.1,9.5,82.9c6.1,17.1,16,25.5,30,25.5c14.1,0,23.9-8.4,30-25.1s9.5-44.5,9.5-83.3
		c0-38.4-3.4-66.1-9.5-82.9C294.1,115.2,284.3,106.9,270.2,106.9L270.2,106.9z M270.2,97.7c-22,0-39.9,11-54.4,33.1
		c-14.8,22.1-22,50.2-22,83.6c0,33.8,7.2,62,22,84c14.4,22.4,32.7,33.5,54.4,33.5s39.9-11.4,54.7-33.5c14.4-22.4,22-50.6,22-84
		c0-33.5-7.6-61.6-22-83.6C310.1,108.8,291.9,97.7,270.2,97.7L270.2,97.7z M375.5,378.3c-9.5-7.2-19.8-12.9-30.4-16.3
		c-10.6-3.8-21.7-5.7-33.1-5.7c-35.7,0-65,16.3-87.8,48.7c-23.2,32.7-34.6,74.9-34.6,126.6c0,49.4,10.6,89.3,31.6,119.4
		c20.9,30,49,45.2,84,45.2c14.1,0,28.1-3,41.4-8.4c13.7-5.3,25.1-12.9,34.2-22.4v-111h18.6v-11.8h-90.1v11.8h33.8v81.4
		c0,18.6-3.4,31.6-9.5,39.2c-6.5,7.6-16.7,11.4-31.5,11.4c-24.3,0-42.2-12.9-54-38.4c-11.4-25.5-17.5-64.6-17.5-117.5
		c0-54.7,6.8-95.4,20.1-122.8c13.3-27.4,33.5-40.7,60.1-40.7c20.5,0,37.3,30,50.6,90.9c0.8,3,1.5,5.3,1.9,6.8h12.2L375.5,378.3
		L375.5,378.3z"/>
</g>
</svg>
