<?xml version="1.0" encoding="utf-8"?>
<!-- Generator: Adobe Illustrator 24.2.3, SVG Export Plug-In . SVG Version: 6.00 Build 0)  -->
<svg version="1.1" id="Layer_1" xmlns="http://www.w3.org/2000/svg" xmlns:xlink="http://www.w3.org/1999/xlink" x="0px" y="0px"
	 viewBox="0 0 1000 121.6" style="enable-background:new 0 0 1000 121.6;" xml:space="preserve">
<style type="text/css">
	.st0{fill:#DDDDDD;}
</style>
<g id="XMLID_1_">
	<path id="XMLID_15_" class="st0" d="M953,119.6l-57-74.8v74.8h-25.5V2h23.9l55.1,72.4V2H975v117.6h-21.8L953,119.6L953,119.6z
		 M784.4,121.6c-36.3,0-62.3-27.1-62.3-60.5v-0.3c0-33.4,26.4-60.8,62.7-60.8s62.3,27.1,62.3,60.5v0.3
		C847.1,94.2,820.7,121.6,784.4,121.6z M820.1,60.8c0-20.2-14.8-37-35.6-37s-35.3,16.5-35.3,36.6v0.3c0,20.2,14.8,37,35.6,37
		s35.3-16.5,35.3-36.6V60.8z M672,119.6V2h25.9v117.6H672z M615.2,25.8v93.8h-25.9V25.8h-35.8V1.9H651v23.9H615.2L615.2,25.8z
		 M495.2,84.3h-19.7v35.3h-25.9V2h48.1c28.1,0,45,16.6,45,40.7V43C542.8,70.2,521.6,84.3,495.2,84.3L495.2,84.3z M516.6,43.2
		c0-11.6-8.1-17.8-21-17.8h-20v36h20.5c12.9,0,20.5-7.7,20.5-17.8V43.2L516.6,43.2z M337.1,119.6V2h88.7v23h-63v23.9h55.5v23h-55.5
		v24.7h63.9v23H337.1L337.1,119.6z M268.2,121.6c-34.6,0-60.3-26.7-60.3-60.5v-0.3c0-33.4,25.2-60.8,61.3-60.8
		c22.2,0,35.5,7.4,46.4,18.1l-16.5,19c-9.1-8.2-18.3-13.3-30.1-13.3c-19.8,0-34.1,16.5-34.1,36.6v0.3c0,20.2,13.9,37,34.1,37
		c13.4,0,21.7-5.4,30.9-13.8l16.5,16.6C304.3,113.6,290.9,121.6,268.2,121.6z M162.8,119.6l-57-74.8v74.8H80.3V2h23.9l55.1,72.4V2
		h25.5v117.6L162.8,119.6L162.8,119.6z M25,119.6V2h25.9v117.6H25z"/>
</g>
</svg>
