<?xml version="1.0" encoding="utf-8"?>
<!-- Generator: Adobe Illustrator 24.2.3, SVG Export Plug-In . SVG Version: 6.00 Build 0)  -->
<svg version="1.1" id="Layer_1" xmlns="http://www.w3.org/2000/svg" xmlns:xlink="http://www.w3.org/1999/xlink" x="0px" y="0px"
	 viewBox="0 0 1000 213" style="enable-background:new 0 0 1000 213;" xml:space="preserve">
<style type="text/css">
	.st0{fill:#DDDDDD;}
	.st1{fill:#EEEEEE;}
</style>
<g>
	<path class="st0" d="M503.1,4.7v71.1h-33.6V62.7c0-4.6-0.6-7.8-1.7-9.7c-1.1-1.9-2.6-3.1-4.5-3.7c-1.9-0.5-3.9-1.1-6-1.6V87h23.5
		v39.5h-23.5v26.1c0,4.6,0.2,8.3,0.5,11c0.4,2.7,1.3,5.3,2.7,7.8v37.4h-46v-37.3c3-3.4,4.6-9,4.6-16.9V57c0-7.9-1.9-12.9-5.7-15V4.6
		h89.7V4.7z"/>
</g>
<g>
	<path class="st0" d="M80.8,3.7c6.4,0,12.5,1.9,18.3,5.8s10.7,10,14.4,18.5c3.8,8.5,5.6,19.2,5.6,32.1v34c0,37.6-12,56.5-36.1,56.5
		H67.6c0,1.3,0,2.9-0.1,4.9c0,2-0.1,3.4-0.1,4.1c0,3,0.2,5.4,0.7,7.2s1.4,3.3,2.8,4.6v37.5H25v-37.5c1.8-1.2,3.1-3,3.7-5.4
		s0.9-5.5,0.9-9.4c0-0.9,0-2.2-0.1-3.9c0-1.8-0.1-3.1-0.1-4V64c0-0.9,0-2.2,0.1-3.9c0-1.7,0.1-3,0.1-3.7c0-3.4-0.3-6.1-0.9-8.2
		s-1.8-3.8-3.7-5V3.8L80.8,3.7L80.8,3.7z M67.6,107.3c1.7,0.3,2.8,0.5,3.5,0.5c6.5,0,9.7-5.8,9.7-17.5V67.6c0-5-0.4-8.9-1.2-11.5
		c-0.8-2.7-2.2-4.5-4.1-5.5s-4.5-1.5-7.9-1.5V107.3z"/>
</g>
<g>
	<path class="st0" d="M548.9,20.3V53c-1.8,2.4-2.9,5-3.3,7.8c-0.4,2.9-0.7,6.6-0.7,11.3v83c0,6.5,0.2,10.8,0.7,13s1.6,4.8,3.3,7.6
		v32.9h-43.5v-32.9c2.8-3.7,4.2-8.8,4.2-15.4c0-0.7,0-1.9-0.1-3.4c0-1.6-0.1-2.8-0.1-3.6V72c0-0.7,0-1.7,0.1-2.9
		c0-1.3,0.1-2.3,0.1-2.9c0-6-1.4-10.4-4.2-13.2V20.3L548.9,20.3L548.9,20.3z"/>
</g>
<g>
	<path class="st0" d="M788.8,75.4c0-12.7,1.5-23.3,4.5-31.8s7.7-14.8,14-19s14.3-6.3,24-6.3c14.4,0,24.8,4.4,31,13.2
		c6.3,8.8,9.4,22.8,9.4,42.1v84.7c0,9.4-0.7,17.4-2.1,24.2c-1.4,6.8-3.7,12.5-6.8,17.2c-3.1,4.6-7.3,8.1-12.5,10.5
		c-5.2,2.3-11.5,3.5-19,3.5c-9.9,0-18.1-2.3-24.3-6.8c-6.3-4.5-10.9-11.3-13.8-20.3c-2.9-9-4.4-20.2-4.4-33.6L788.8,75.4L788.8,75.4
		z M837.3,75.4c0-4.2-0.1-7.3-0.3-9.3s-0.7-3.6-1.6-4.7c-0.9-1.1-2.3-1.7-4.2-1.7c-4.7,0-7.1,5.2-7.1,15.6v79.5
		c0,11.5,2.4,17.3,7.1,17.3c2.3,0,3.9-1.4,4.8-4.3c0.8-2.9,1.3-7.2,1.3-13V75.4z"/>
</g>
<g>
	<path class="st0" d="M918.1,20.3l19.1,84.7V72c0-0.8,0-2,0.1-3.6c0-1.6,0.1-2.7,0.1-3.4c0-5.3-1-9.3-3.1-12.1V20.2h35.3v32.7
		c-1.8,2.4-2.9,4.9-3.3,7.5c-0.4,2.6-0.6,6.5-0.6,11.6v136.6h-33.4L911,123.9v29.4c0,5.5,0.2,9.6,0.7,12.5c0.5,2.8,1.6,5,3.4,6.6
		v36.2h-34.4v-34.5c2.8-2.9,4.2-7.7,4.2-14.5c0-0.8,0-1.8-0.1-3.3c0-1.4-0.1-2.5-0.1-3.1V73.7c0-0.8,0-2,0.1-3.6
		c0-1.6,0.1-2.7,0.1-3.4c0-3.2-0.3-5.9-0.8-8c-0.6-2.2-1.7-4.1-3.4-5.8V20.2L918.1,20.3L918.1,20.3z"/>
</g>
<g>
	<path class="st0" d="M601.6,70.1c0-3.6-0.6-6.3-1.7-8.3c-1.1-1.9-2.5-2.9-4.1-2.9c-1.8,0-3.4,1.3-4.7,3.8s-2,6.2-2,10.9v86.5
		c0,3.8,0.7,6.9,2.1,9.4c1.4,2.4,2.9,3.6,4.7,3.6c1.6,0,2.9-1.1,4.1-3.3c1.2-2.2,1.7-5.4,1.7-9.6v-29.4h35.1v60.4
		c-2.4,6.6-7.6,11.7-15.5,15.4s-16.6,5.5-25.9,5.5c-12.8,0-23.1-4.6-30.9-13.8c-7.8-9.2-11.7-23.6-11.7-43.3V77.3
		c0-19.9,3.2-34.7,9.5-44.4c6.3-9.7,16-14.5,29-14.5c9.5,0,17.9,1.5,25,4.4s14,7.8,20.6,14.7v53.6h-35.1v-21H601.6z"/>
</g>
<g>
	<path class="st0" d="M162.9,20.3v34.5c-1.7,1.5-2.8,3.9-3.3,7.2c-0.4,3.3-0.7,7.8-0.7,13.6v72.5c0,5.8,0.1,10.1,0.3,13
		s0.8,5.2,1.8,7c1,1.7,2.6,2.6,4.8,2.6c2.5,0,4.1-1.2,4.9-3.6c0.8-2.4,1.1-6.1,1.1-11.1v-7.9V77.4c0-0.9,0-2.3,0.1-4
		c0-1.8,0.1-3.1,0.1-3.9c0-7.9-1.4-12.8-4.1-14.7V20.3H209v34.5c-2.2,2.3-3.6,5.5-4.1,9.5c-0.6,4-0.8,9.5-0.8,16.3v70.9
		c0,7.1-0.4,13.9-1.1,20.6c-0.8,6.6-2.5,13.2-5.1,19.6c-2.7,6.4-6.6,11.5-11.9,15.2c-5,4-11.9,5.9-20.8,5.9c-9.4,0-16.8-2-22.3-5.9
		c-5.1-3.9-9-8.8-11.7-14.6s-4.5-11.5-5.3-17.3c-0.8-5.7-1.2-11.7-1.2-17.8v-7.5V77.3c0-0.6,0-1.7,0.1-3.2c0-1.5,0.1-2.6,0.1-3.4
		c0-7.9-1.4-13.2-4.2-16V20.2L162.9,20.3L162.9,20.3z"/>
</g>
<g>
	<path class="st0" d="M253.6,20.3v34.5c-1.7,1.1-2.8,2.9-3.4,5.4c-0.6,2.5-0.9,5.8-0.9,9.9c0,1,0,2.4,0.1,4.3c0,1.9,0.1,3.4,0.1,4.4
		v90c4.1,0,7-1.1,8.7-3.3s2.6-6.9,2.6-14.1v-34.5h32.3v91.5h-83v-32.9c2.8-1.8,4.2-6,4.2-12.5c0-0.8,0-1.8-0.1-3.3
		c0-1.4-0.1-2.5-0.1-3.1V71.9c0-0.8,0-2,0.1-3.5c0-1.5,0.1-2.6,0.1-3.3c0-5.1-1.1-8.6-3.3-10.5V20.1h42.6V20.3z"/>
</g>
<g>
	<path class="st0" d="M350.7,20.3c6,0,11.8,1.8,17.3,5.3s10.1,9.2,13.7,17s5.4,17.6,5.4,29.5v31.2c0,34.6-11.4,51.8-34.2,51.8h-14.6
		c0,1.2,0,2.7-0.1,4.5c0,1.8-0.1,3.1-0.1,3.8c0,2.8,0.2,4.9,0.7,6.6c0.4,1.6,1.3,3,2.7,4.2v34.5h-43.6v-34.5c1.7-1.1,2.9-2.8,3.5-5
		s0.9-5.1,0.9-8.6c0-0.8,0-2-0.1-3.6c0-1.6-0.1-2.8-0.1-3.6V75.7c0-0.8,0-2,0.1-3.6c0-1.6,0.1-2.7,0.1-3.4c0-3.1-0.3-5.6-0.9-7.6
		c-0.6-1.9-1.7-3.4-3.5-4.6V20.3H350.7z M338.2,115.3c1.6,0.3,2.7,0.4,3.3,0.4c6.1,0,9.2-5.3,9.2-16V78.9c0-4.6-0.4-8.1-1.2-10.6
		c-0.8-2.4-2.1-4.1-3.9-5.1c-1.8-0.9-4.3-1.4-7.5-1.4v53.5H338.2z"/>
</g>
<g>
	<path class="st0" d="M740,20.3V105h-25.9V72c0-2.6-0.3-4.7-0.9-6.5c-0.6-1.8-2-3-4.3-3.8V155c0,11.1,1.4,17.5,4.1,19.1v34.5h-43.5
		v-32.9c2.8-1.9,4.2-7,4.2-15.4c0-1.3,0-2.6-0.1-4s-0.1-2.4-0.1-3.1V61.7c-2.2,0-3.6,1.1-4.2,3.2c-0.6,2.1-0.9,5.1-0.9,8.8v31.2
		h-25.9V20.2H740V20.3z"/>
</g>
<g>
	<path class="st0" d="M785.8,20.3V53c-1.8,2.4-3,5-3.4,7.8c-0.5,2.9-0.7,6.6-0.7,11.3v83c0,6.5,0.2,10.8,0.7,13s1.6,4.8,3.3,7.6
		v32.9H741v-32.9c2.9-3.7,4.3-8.8,4.3-15.4c0-0.7,0-1.9-0.1-3.4c0-1.6-0.1-2.8-0.1-3.6V72c0-0.7,0-1.7,0.1-2.9
		c0-1.3,0.1-2.3,0.1-2.9c0-6-1.4-10.4-4.3-13.2V20.3L785.8,20.3L785.8,20.3z"/>
</g>
<g>
	<path class="st1" d="M508.5,0.2v71.1h-33.6V58.2c0-4.6-0.6-7.8-1.7-9.7c-1.1-1.9-2.6-3.1-4.5-3.7c-1.9-0.5-3.9-1.1-6-1.6v39.3h23.5
		V122h-23.5v26.1c0,4.6,0.2,8.3,0.5,11c0.4,2.7,1.3,5.3,2.7,7.8v37.4h-46v-37.4c3-3.4,4.6-9,4.6-16.9V52.4c0-7.9-1.9-12.9-5.7-15V0
		h89.7V0.2z"/>
</g>
<g>
	<path class="st1" d="M86.3-0.7c6.4,0,12.5,1.9,18.3,5.8s10.7,10,14.4,18.5c3.8,8.5,5.6,19.2,5.6,32.1v34c0,37.6-12,56.5-36.1,56.5
		H73.1c0,1.3,0,2.9-0.1,4.9c0,2-0.1,3.4-0.1,4.1c0,3,0.2,5.4,0.7,7.2s1.4,3.3,2.8,4.6v37.5h-46V167c1.8-1.2,3.1-3,3.7-5.4
		c0.6-2.4,0.9-5.5,0.9-9.4c0-0.9,0-2.2-0.1-3.9c0-1.8-0.1-3.1-0.1-4V59.6c0-0.9,0-2.2,0.1-3.9c0-1.7,0.1-3,0.1-3.7
		c0-3.4-0.3-6.1-0.9-8.2c-0.6-2.1-1.8-3.8-3.7-5V-0.6L86.3-0.7L86.3-0.7z M73.1,102.8c1.7,0.3,2.8,0.5,3.5,0.5
		c6.5,0,9.7-5.8,9.7-17.5V63.1c0-5-0.4-8.9-1.2-11.5c-0.8-2.7-2.2-4.5-4.1-5.5s-4.5-1.5-7.9-1.5V102.8z"/>
</g>
<g>
	<path class="st1" d="M554.3,15.8v32.7c-1.8,2.4-2.9,5-3.3,7.8c-0.4,2.9-0.7,6.6-0.7,11.3v83c0,6.5,0.2,10.8,0.7,13s1.6,4.8,3.3,7.6
		v32.9h-43.5v-32.9c2.8-3.7,4.2-8.8,4.2-15.4c0-0.7,0-1.9-0.1-3.4c0-1.6-0.1-2.8-0.1-3.6V67.5c0-0.7,0-1.7,0.1-2.9
		c0-1.3,0.1-2.3,0.1-2.9c0-6-1.4-10.4-4.2-13.2V15.8L554.3,15.8L554.3,15.8z"/>
</g>
<g>
	<path class="st1" d="M794.2,70.9c0-12.7,1.5-23.3,4.5-31.8s7.7-14.8,14-19s14.3-6.3,24-6.3c14.4,0,24.8,4.4,31,13.2
		c6.3,8.8,9.4,22.8,9.4,42.1v84.7c0,9.4-0.7,17.4-2.1,24.2c-1.4,6.8-3.7,12.5-6.8,17.2c-3.1,4.6-7.3,8.1-12.5,10.5
		c-5.2,2.3-11.5,3.5-19,3.5c-9.9,0-18.1-2.3-24.3-6.8c-6.3-4.5-10.9-11.3-13.8-20.3c-2.9-9-4.4-20.2-4.4-33.6L794.2,70.9L794.2,70.9
		z M842.7,70.9c0-4.2-0.1-7.3-0.3-9.3s-0.7-3.6-1.6-4.7c-0.9-1.1-2.3-1.7-4.2-1.7c-4.7,0-7.1,5.2-7.1,15.6v79.5
		c0,11.5,2.4,17.3,7.1,17.3c2.3,0,3.9-1.4,4.8-4.3c0.8-2.9,1.3-7.2,1.3-13V70.9z"/>
</g>
<g>
	<path class="st1" d="M923.6,15.8l19.1,84.7v-33c0-0.8,0-2,0.1-3.6c0-1.6,0.1-2.7,0.1-3.4c0-5.3-1-9.3-3.1-12.1V15.7H975v32.8
		c-1.8,2.4-2.9,4.9-3.3,7.5c-0.4,2.6-0.6,6.5-0.6,11.6v136.6h-33.4l-21.3-84.7v29.4c0,5.5,0.2,9.6,0.7,12.5c0.5,2.8,1.6,5,3.4,6.6
		v36.2h-34.4v-34.5c2.8-2.9,4.2-7.7,4.2-14.5c0-0.8,0-1.8-0.1-3.3c0-1.4-0.1-2.5-0.1-3.1V69.3c0-0.8,0-2,0.1-3.6
		c0-1.6,0.1-2.7,0.1-3.4c0-3.2-0.3-5.9-0.8-8c-0.6-2.2-1.7-4.1-3.4-5.8V15.8L923.6,15.8L923.6,15.8z"/>
</g>
<g>
	<path class="st1" d="M607,65.7c0-3.6-0.6-6.3-1.7-8.3c-1.1-1.9-2.5-2.9-4.1-2.9c-1.8,0-3.4,1.3-4.7,3.8s-2,6.2-2,10.9v86.5
		c0,3.8,0.7,6.9,2.1,9.4c1.4,2.4,2.9,3.6,4.7,3.6c1.6,0,2.9-1.1,4.1-3.3c1.2-2.2,1.7-5.4,1.7-9.6v-29.4h35.1v60.4
		c-2.4,6.6-7.6,11.7-15.5,15.4s-16.6,5.5-25.9,5.5c-12.8,0-23.1-4.6-30.9-13.8c-7.8-9.2-11.7-23.6-11.7-43.3V72.9
		c0-19.9,3.2-34.7,9.5-44.4c6.3-9.7,16-14.5,29-14.5c9.5,0,17.9,1.5,25,4.4s14,7.8,20.6,14.7v53.4H607V65.7z"/>
</g>
<g>
	<path class="st1" d="M168.3,15.8v34.5c-1.7,1.5-2.8,3.9-3.3,7.2c-0.4,3.3-0.7,7.8-0.7,13.6v72.5c0,5.8,0.1,10.1,0.3,13
		s0.8,5.2,1.8,7c1,1.7,2.6,2.6,4.8,2.6c2.5,0,4.1-1.2,4.9-3.6c0.8-2.4,1.1-6.1,1.1-11.1v-7.9V72.9c0-0.9,0-2.3,0.1-4
		c0-1.8,0.1-3.1,0.1-3.9c0-7.9-1.4-12.8-4.1-14.7V15.8h41.1v34.5c-2.2,2.3-3.6,5.5-4.1,9.5c-0.6,4-0.8,9.5-0.8,16.3V147
		c0,7.1-0.4,13.9-1.1,20.6c-0.8,6.6-2.5,13.2-5.1,19.6c-2.7,6.4-6.6,11.5-11.9,15.2c-5,4-11.9,5.9-20.8,5.9c-9.4,0-16.8-2-22.3-5.9
		c-5.1-3.9-9-8.8-11.7-14.6s-4.5-11.5-5.3-17.3c-0.8-5.7-1.2-11.7-1.2-17.8v-7.5V72.8c0-0.6,0-1.7,0.1-3.2c0-1.5,0.1-2.6,0.1-3.4
		c0-7.9-1.4-13.2-4.2-16V15.7h42.2V15.8z"/>
</g>
<g>
	<path class="st1" d="M259,15.8v34.5c-1.7,1.1-2.8,2.9-3.4,5.4s-0.9,5.8-0.9,9.9c0,1,0,2.4,0.1,4.3c0,1.9,0.1,3.4,0.1,4.4v90
		c4.1,0,7-1.1,8.7-3.3s2.6-6.9,2.6-14.1v-34.5h32.3v91.5h-83V171c2.8-1.8,4.2-6,4.2-12.5c0-0.8,0-1.8-0.1-3.3c0-1.4-0.1-2.5-0.1-3.1
		V67.4c0-0.8,0-2,0.1-3.5c0-1.5,0.1-2.6,0.1-3.3c0-5.1-1.1-8.6-3.3-10.5V15.6H259V15.8z"/>
</g>
<g>
	<path class="st1" d="M356.2,15.8c6,0,11.8,1.8,17.3,5.3s10.1,9.2,13.7,17s5.4,17.6,5.4,29.5v31.2c0,34.6-11.4,51.8-34.2,51.8h-14.6
		c0,1.2,0,2.7-0.1,4.5c0,1.8-0.1,3.1-0.1,3.8c0,2.8,0.2,4.9,0.7,6.6c0.4,1.6,1.3,3,2.7,4.2v34.5h-43.6v-34.5c1.7-1.1,2.9-2.8,3.5-5
		s0.9-5.1,0.9-8.6c0-0.8,0-2-0.1-3.6c0-1.6-0.1-2.8-0.1-3.6V71.2c0-0.8,0-2,0.1-3.6c0-1.6,0.1-2.7,0.1-3.4c0-3.1-0.3-5.6-0.9-7.6
		c-0.6-1.9-1.7-3.4-3.5-4.6V15.8H356.2z M343.6,110.9c1.6,0.3,2.7,0.4,3.3,0.4c6.1,0,9.2-5.3,9.2-16V74.5c0-4.6-0.4-8.1-1.2-10.6
		c-0.8-2.4-2.1-4.1-3.9-5.1c-1.8-0.9-4.3-1.4-7.5-1.4v53.5H343.6z"/>
</g>
<g>
	<path class="st1" d="M745.5,15.8v84.7h-25.9v-33c0-2.6-0.3-4.7-0.9-6.5c-0.6-1.8-2-3-4.3-3.8v93.3c0,11.1,1.4,17.5,4.1,19.1v34.5
		H675v-32.9c2.8-1.9,4.2-7,4.2-15.4c0-1.3,0-2.6-0.1-4s-0.1-2.4-0.1-3.1V57.2c-2.2,0-3.6,1.1-4.2,3.2c-0.6,2.1-0.9,5.1-0.9,8.8v31.2
		H648V15.7h97.5V15.8z"/>
</g>
<g>
	<path class="st1" d="M791.2,15.8v32.7c-1.8,2.4-3,5-3.4,7.8c-0.5,2.9-0.7,6.6-0.7,11.3v83c0,6.5,0.2,10.8,0.7,13s1.6,4.8,3.3,7.6
		v32.9h-44.7v-32.9c2.9-3.7,4.3-8.8,4.3-15.4c0-0.7,0-1.9-0.1-3.4c0-1.6-0.1-2.8-0.1-3.6V67.5c0-0.7,0-1.7,0.1-2.9
		c0-1.3,0.1-2.3,0.1-2.9c0-6-1.4-10.4-4.3-13.2V15.8L791.2,15.8L791.2,15.8z"/>
</g>
</svg>
