<?xml version="1.0" encoding="utf-8"?>
<!-- Generator: Adobe Illustrator 24.2.3, SVG Export Plug-In . SVG Version: 6.00 Build 0)  -->
<svg version="1.1" id="Layer_1" xmlns="http://www.w3.org/2000/svg" xmlns:xlink="http://www.w3.org/1999/xlink" x="0px" y="0px"
	 viewBox="0 0 573.2 1000" style="enable-background:new 0 0 573.2 1000;" xml:space="preserve">
<style type="text/css">
	.st0{fill:#DDDDDD;}
</style>
<g>
	<path class="st0" d="M297.4,79.3h1.4c4.7,0,8.4-3.8,8.4-8.4V33.4c0-4.7-3.8-8.4-8.4-8.4h-1.4c-4.7,0-8.4,3.8-8.4,8.4v37.4
		C289,75.5,292.8,79.3,297.4,79.3z M296.9,34.7c0-0.7,0.6-1.2,1.2-1.2c0.7,0,1.2,0.6,1.2,1.2v35c0,0.7-0.6,1.2-1.2,1.2
		c-0.7,0-1.2-0.6-1.2-1.2V34.7z"/>
	<path class="st0" d="M319,79.3h1.4c4.7,0,8.4-3.8,8.4-8.4V33.4c0-4.7-3.8-8.4-8.4-8.4H319c-4.7,0-8.4,3.8-8.4,8.4v37.4
		C310.5,75.5,314.3,79.3,319,79.3z M318.4,34.7c0-0.7,0.6-1.2,1.2-1.2c0.7,0,1.2,0.6,1.2,1.2v35c0,0.7-0.6,1.2-1.2,1.2
		c-0.7,0-1.2-0.6-1.2-1.2V34.7z"/>
	<path class="st0" d="M80,79.3h1.4c4.7,0,8.4-3.8,8.4-8.4V57.3h-7.9v12.3c0,0.7-0.6,1.2-1.2,1.2s-1.2-0.6-1.2-1.2v-35
		c0-0.7,0.6-1.2,1.2-1.2s1.2,0.6,1.2,1.2v11.5h7.9V33.4c0-4.7-3.8-8.4-8.4-8.4H80c-4.7,0-8.4,3.8-8.4,8.4v37.4
		C71.6,75.5,75.3,79.3,80,79.3z"/>
	<polygon class="st0" points="100.3,79.3 110.2,79.3 110.2,71.4 100.3,71.4 100.3,25 92.4,25 92.4,79.3 93.9,79.3 	"/>
	<rect x="112.4" y="25" class="st0" width="7.9" height="54.3"/>
	<polygon class="st0" points="131.2,51.6 137.5,79.3 139.1,79.3 146.8,79.3 146.9,79.3 146.9,25 139.1,25 139.1,45.4 134.4,25 
		131.2,25 125.2,25 123.3,25 123.3,79.3 131.2,79.3 	"/>
	<polygon class="st0" points="154.3,79.3 162.1,79.3 162.1,32.9 167.7,32.9 167.7,25 148.8,25 148.8,32.9 154.3,32.9 	"/>
	<polygon class="st0" points="242.3,79.3 250.1,79.3 250.1,32.9 255.7,32.9 255.7,25 236.8,25 236.8,32.9 242.3,32.9 	"/>
	<polygon class="st0" points="184.8,79.3 194.7,79.3 194.7,71.4 184.8,71.4 184.8,56.1 191.5,56.1 191.5,48.2 184.8,48.2 
		184.8,32.9 194.7,32.9 194.7,25 184.8,25 179,25 176.9,25 176.9,79.3 179,79.3 	"/>
	<path class="st0" d="M219.3,48C219.3,48,219.4,48,219.3,48c1.7,3.9,5.9,11.3,6.8,13.3c2.1,4.8,1.7,9.5-0.2,9.5
		c-2.2,0-1.3-7.9-1.3-7.9h-8v7.4c0,0-0.1,8.9,8.5,8.9c8.7,0,10.5-6.3,10.5-12.8c0-3.3-1.2-7-2.6-10.2l0,0c0,0,0,0,0-0.1
		c-1.7-3.8-5.9-11.2-6.8-13.1c-2.1-4.8-1.7-9.5,0.2-9.5c2.2,0,1.3,7.9,1.3,7.9h7.9v-7.5c0,0,0.1-8.9-8.5-8.9
		c-8.7,0-10.5,6.3-10.5,12.8C216.7,41.1,218,44.8,219.3,48L219.3,48z"/>
	<path class="st0" d="M204.2,72.3h3.7l0.4,7h7.9l-6-54.3h-8.4l-6,54.3h7.9L204.2,72.3z M205.2,54.9l0.4-7.9h0.8l0.4,7.9l1,10.5h-3.6
		L205.2,54.9z"/>
	<path class="st0" d="M349.6,70.8V33.4c0-4.7-3.8-8.4-8.4-8.4h-9.9v54.3h9.9C345.8,79.3,349.6,75.5,349.6,70.8z M339.3,70.8V33.4
		h0.8c1,0,1.7,0.8,1.7,1.7v34.1c0,1-0.8,1.7-1.7,1.7L339.3,70.8L339.3,70.8z"/>
	<polygon class="st0" points="269.6,79.3 271.2,62.4 271.7,55.6 272.2,55.6 272.7,62.4 274.3,79.3 281.9,79.3 287.8,25 279.4,25 
		277.1,38.3 276.9,43.9 276.8,43.9 276.4,38.3 275.3,25 268.6,25 267.3,38.3 267.1,43.9 266.9,43.9 266.8,38.3 264.3,25 256.1,25 
		261.9,79.3 	"/>
	<path class="st0" d="M193.9,927.3c0,4.3-3.4,7.8-7.8,7.8c-4.3,0-7.8-3.4-7.8-7.8V683.6h-49.6V939c0,19.9,16.1,36,36,36h43.5
		c19.9,0,36-16.1,36-36V683.6h-50.3L193.9,927.3L193.9,927.3z"/>
	<path class="st0" d="M402.2,385.8h-66.4l-27.5,290.3h48.1l3.6-62h19.4l3.8,62h49.2L402.2,385.8z M361.3,574.9l4.1-72.5l3.4-59.3
		h0.7l3.3,59.3l4,72.5H361.3z"/>
	<path class="st0" d="M443.3,381.8h78.8c19.8,0,35.7-16,35.7-35.7V123.6c0-19.8-16-35.7-35.7-35.7h-78.8c-0.6,0-1,0.4-1,1V381
		C442.3,381.4,442.7,381.8,443.3,381.8z M491.9,129.7c0-0.9,0.8-1.7,1.7-1.7h3.3c5.9,0,10.7,4.8,10.7,10.7v192.1
		c0,5.9-4.8,10.7-10.7,10.7h-3.3c-0.9,0-1.7-0.8-1.7-1.7V129.7z"/>
	<path class="st0" d="M443.3,679.3h78.8c19.8,0,35.7-16,35.7-35.7V421c0-19.8-16-35.7-35.7-35.7h-78.8c-0.6,0-1,0.4-1,1v292.2
		C442.3,678.9,442.7,679.3,443.3,679.3z M491.9,427.2c0-0.9,0.8-1.7,1.7-1.7h3.3c5.9,0,10.7,4.8,10.7,10.7v192.1
		c0,5.9-4.8,10.7-10.7,10.7h-3.3c-0.9,0-1.7-0.8-1.7-1.7V427.2z"/>
	<path class="st0" d="M184.6,346.1c0,19.8,16,35.7,35.7,35.7h44.1c19.8,0,35.7-16,35.7-35.7V123.6c0-19.8-16-35.7-35.7-35.7h-44.1
		c-19.8,0-35.7,16-35.7,35.7L184.6,346.1L184.6,346.1z M234.3,135.9c0-4.3,3.4-7.8,7.8-7.8c4.3,0,7.8,3.4,7.8,7.8v197.9
		c0,4.3-3.4,7.8-7.8,7.8c-4.3,0-7.8-3.4-7.8-7.8V135.9z"/>
	<path class="st0" d="M313.1,123.6v222.6c0,19.8,16,35.7,35.7,35.7h44.1c19.8,0,35.7-16,35.7-35.7V123.6c0-19.8-16-35.7-35.7-35.7
		h-44.1C329.2,87.7,313.1,103.8,313.1,123.6z M362.8,135.9c0-4.3,3.4-7.8,7.8-7.8c4.3,0,7.8,3.4,7.8,7.8v197.9
		c0,4.3-3.4,7.8-7.8,7.8c-4.3,0-7.8-3.4-7.8-7.8V135.9z"/>
	<path class="st0" d="M141.4,363.3l8.5,16.2h20.5V228.8h-50.3h-7.4v38.5h7.4v66c0,4.2-3.2,8-7.4,8.2c-4.6,0.2-8.2-3.3-8.2-7.8V136.3
		c0-4.2,3.2-8,7.4-8.2c4.6-0.2,8.2,3.3,8.2,7.8v53.4h50.3v-65.7c0-19.8-16-35.7-35.7-35.7H90.6c-19.8,0-35.7,16-35.7,35.7v222.6
		c0,19.8,16,35.7,35.7,35.7C120.1,381.8,131.4,376.5,141.4,363.3z"/>
	<path class="st0" d="M338.7,680.2h-44.1c-19.8,0-35.7,16-35.7,35.7v222.6c0,19.8,16,35.7,35.7,35.7c29.3,0,40.6-5.4,50.6-18.6
		l8.5,16.2h20.5V821.3h-50.3h-7.3v38.5h7.4v66c0,4.2-3.2,8-7.4,8.2c-4.6,0.2-8.2-3.3-8.2-7.8V728.8c0-4.2,3.2-8,7.4-8.2
		c4.6-0.2,8.2,3.3,8.2,7.8v53.4h50.3v-65.7C374.4,696.3,358.5,680.2,338.7,680.2z"/>
	<path class="st0" d="M299.1,480.9v-57c0-21.1-17.1-38.1-38.1-38.1h-77.4v133.3v157h75.6c22.1,0,40-17.9,40-40V559
		c0-22.1-8.8-40-30.9-40C289.3,519.1,299.1,502,299.1,480.9z M248.8,627c0,6.1-4.9,11-11,11h-4.7v-97.3h4.7c6.1,0,11,4.9,11,11V627z
		 M248.8,486.9c0,6.1-4.9,11-11,11h-4.7v-73.5h4.7c6.1,0,11,4.9,11,11V486.9z"/>
	<polygon class="st0" points="438.8,682.7 389.2,682.7 389.2,971.9 420.7,971.9 438.8,971.9 468.9,971.9 468.9,933.8 438.8,933.8 	
		"/>
	<polygon class="st0" points="524.6,682.7 512.4,786.2 511.9,792.1 511.1,792.1 510.6,786.2 498.4,682.7 449.9,682.7 486.6,860.2 
		486.6,971.9 536.4,971.9 536.4,860.2 573.1,682.7 	"/>
	<path class="st0" d="M77.8,884.9c-0.3-0.3-0.4-0.9-0.4-1.7v-1.4h-5.7v6.5v6.5h5.7v-1.4c0-0.8,0.1-1.3,0.4-1.7
		c0.3-0.3,0.9-0.4,1.7-0.4H104l-32.3,12.3v6.9v6.8h5.7v-1.4c0-0.8,0.1-1.3,0.4-1.7c0.3-0.3,0.9-0.4,1.7-0.4h33.1
		c0.8,0,1.3,0.1,1.7,0.4c0.3,0.3,0.4,0.9,0.4,1.7v0.9v0.6v1.1c0,0.7-0.1,1.2-0.3,1.4c-0.2,0.2-0.9,0.4-1.8,0.7l-41,8.5v4.9v4.9
		l41,9.5c0.7,0.1,1.2,0.4,1.7,0.8c0.4,0.3,0.6,0.8,0.6,1.3v1.7h5.7v-6.5V939h-5.7v1.6c0,0.9-0.1,1.4-0.4,1.7
		c-0.3,0.2-0.9,0.3-1.7,0.1l-6.3-1.3v-9.4l6.3-1.1c0.8-0.1,1.3-0.1,1.7,0.2c0.3,0.3,0.4,0.9,0.4,1.7v1.6h5.7v-8.5v-8.1v-0.6v-6.1
		v-6.5h-5.7v1.4c0,0.8-0.1,1.3-0.4,1.7c-0.3,0.3-0.9,0.4-1.7,0.4H86.6l34-13.7v-4.3v-4.3h-41C78.7,885.4,78.1,885.2,77.8,884.9z
		 M100.7,939.7l-17.8-3.9l17.8-3.2V939.7z"/>
	<path class="st0" d="M114.6,850.7c-3.9-2.2-10.1-3.3-18.8-3.2h-0.2c-8.4,0-14.5,1.1-18.2,3.3c-3.8,2.3-5.7,6-5.7,11.1v9.3v8.7h5.7
		v-1.6c0-0.9,0.2-1.4,0.8-1.7c0.6-0.2,1.6-0.4,3.1-0.4h31.4c0.8,0,1.3,0.1,1.7,0.4c0.3,0.3,0.6,0.9,0.6,1.7v1.4h5.7V871v-9.8
		C120.4,856.5,118.5,852.9,114.6,850.7z M114.9,866.1H77.4v-1.3c0-3.1,1.1-5.1,3.4-6.1c2.3-0.9,7.3-1.3,15.1-1.3
		c8,0,13.1,0.4,15.4,1.2c2.3,0.9,3.4,2.8,3.4,5.8v1.8h0.2V866.1z"/>
	<path class="st0" d="M114.9,812.5c0,1.2-0.1,2-0.4,2.4s-1,0.7-2,0.7H77.4v-0.1c0-2.4,0.8-4.1,2.4-5.1c1.7-1,4.4-1.4,8.4-1.4H91
		v-4.9h-9.7h-9.7v16.5v16.5h9.7H91v-4.8h-2.8c-4,0-6.8-0.4-8.4-1.4c-1.7-1-2.4-2.7-2.4-5.1v-0.1h35.2c0.8,0,1.3,0.1,1.7,0.4
		c0.3,0.3,0.6,0.9,0.6,1.7v3h5.7v-10.2v-10.2h-5.7L114.9,812.5L114.9,812.5L114.9,812.5z"/>
	<path class="st0" d="M114.9,767c0,0.9-0.1,1.4-0.4,1.7c-0.3,0.2-1,0.4-2,0.4H79.6c-0.8,0-1.3-0.1-1.7-0.4c-0.3-0.3-0.4-0.9-0.4-1.7
		v-1.4h-5.7v8.5v8.5h5.7v-1.3c0-0.8,0.1-1.2,0.4-1.6c0.3-0.3,0.9-0.4,1.7-0.4h13.1v9.4H79.6c-0.8,0-1.3-0.1-1.7-0.4
		c-0.3-0.3-0.4-0.9-0.4-1.7v-1.4h-5.7v8.7v8.7h5.7v-1.8c0-0.9,0.1-1.4,0.4-1.7c0.3-0.2,1-0.4,2-0.4h32.9c0.8,0,1.3,0.1,1.7,0.4
		c0.3,0.3,0.6,0.9,0.6,1.7v1.4h5.7v-8.7v-8.7h-5.7v1.4c0,0.8-0.1,1.3-0.4,1.7c-0.3,0.3-0.9,0.4-1.7,0.4H98.6V779H113
		c0.8,0,1.3,0.1,1.7,0.4c0.3,0.3,0.4,0.8,0.4,1.6v1.3h5.7v-8.5v-8.5h-5.7v1.8L114.9,767L114.9,767z"/>
	<path class="st0" d="M102.3,732.9v4.8h2.6c3.7,0,6.2,0.6,7.8,1.8c1.6,1.2,2.2,3.2,2.2,6.1v5.5h-17v-2.9c0-1,0.2-1.7,0.8-2
		c0.6-0.4,1.3-0.6,2.6-0.6h3.3v-4.9h-9.5h-9.5v4.8H89c1.2,0,2.1,0.2,2.7,0.6c0.6,0.4,0.8,1.1,0.8,2v2.9H77.6v-5.8c0-2.8,0.7-4.8,2-6
		c1.3-1.1,3.6-1.8,6.7-1.8h2.1v-4.8h-8.2H72v18.2v13.7h5.7V763c0-0.9,0.1-1.4,0.4-1.7c0.3-0.2,1-0.4,2-0.4H113
		c0.8,0,1.3,0.1,1.7,0.4c0.3,0.3,0.4,0.9,0.4,1.7v1.4h5.7v-13.7v-18.2h-9.1h-9.1v0.4H102.3z"/>
	<path class="st0" d="M147,673.5v-4.8h-2.8c-4,0-6.8-0.4-8.4-1.4c-1.7-1-2.4-2.7-2.4-5.1V662h35.2c0.8,0,1.3,0.1,1.7,0.4
		c0.3,0.3,0.6,0.9,0.6,1.7v3h5.7v-10.2v-10.2h-5.7v2.2c0,1.2-0.1,2-0.4,2.4s-1,0.7-2,0.7h-35.1v-0.1c0-2.4,0.8-4.1,2.4-5.1
		c1.7-1,4.4-1.4,8.4-1.4h2.8v-4.8h-9.7h-9.4v16.5v16.5h9.7h9.5v-0.1H147z"/>
	<path class="st0" d="M176.5,618.9v-8.5v-8.5h-5.7v1.6c0,0.9-0.1,1.4-0.4,1.7c-0.3,0.2-1,0.4-2,0.4h-32.8c-0.8,0-1.3-0.1-1.7-0.4
		c-0.3-0.3-0.4-0.9-0.4-1.7v-1.4h-5.7v8.5v8.5h5.7v-1.3c0-0.8,0.1-1.2,0.4-1.6c0.3-0.3,0.9-0.4,1.7-0.4h13.1v9.4h-13.1
		c-0.8,0-1.3-0.1-1.7-0.4c-0.3-0.3-0.4-0.9-0.4-1.7v-1.4h-5.7v8.7v8.7h5.7v-1.6c0-0.9,0.1-1.4,0.4-1.7c0.3-0.2,1-0.4,2-0.4h32.9
		c0.8,0,1.3,0.1,1.7,0.4s0.6,0.9,0.6,1.7v1.4h5.7V630v-8.7h-5.7v1.4c0,0.8-0.1,1.3-0.4,1.7c-0.3,0.3-0.9,0.4-1.7,0.4h-14.4v-9.3H169
		c0.8,0,1.3,0.1,1.7,0.4c0.3,0.3,0.4,0.8,0.4,1.6v1.3L176.5,618.9L176.5,618.9z"/>
	<path class="st0" d="M176.5,587.3v-18.2h-9.1h-9.1v4.8h2.6c3.7,0,6.2,0.6,7.8,1.8c1.6,1.2,2.2,3.2,2.2,6.1v5.5h-17v-2.9
		c0-1,0.2-1.7,0.8-2c0.6-0.4,1.3-0.6,2.6-0.6h3.3V577h-9.5h-9.5v4.8h3.4c1.2,0,2.1,0.2,2.7,0.6c0.6,0.4,0.8,1.1,0.8,2v2.9h-14.9
		v-5.8c0-2.8,0.7-4.8,2-6c1.3-1.1,3.6-1.8,6.7-1.8h2.1V569h-8.2h-8.1v18.2V601h5.7v-1.6c0-0.9,0.1-1.4,0.4-1.7c0.3-0.2,1-0.4,2-0.4
		h32.9c0.8,0,1.3,0.1,1.7,0.4c0.3,0.3,0.4,0.9,0.4,1.7v1.4h5.7v-13.5L176.5,587.3L176.5,587.3z"/>
	<path class="st0" d="M43.3,337c0,1.2-0.1,2-0.4,2.4s-1,0.7-2,0.7H5.8V340c0-2.4,0.8-4.1,2.4-5.1c1.7-1,4.4-1.4,8.4-1.4h2.8v-4.8
		H9.7H0v16.5v16.5h9.7h9.7v-4.8h-2.8c-4,0-6.8-0.4-8.4-1.4c-1.7-1-2.4-2.7-2.4-5.1v-0.1H41c0.8,0,1.3,0.1,1.7,0.4
		c0.3,0.3,0.6,0.9,0.6,1.7v3H49v-10.2V335h-5.7V337L43.3,337z"/>
	<path class="st0" d="M43.3,291.4c0,0.9-0.1,1.4-0.4,1.7c-0.3,0.2-1,0.4-2,0.4H8c-0.8,0-1.3-0.1-1.7-0.4c-0.3-0.3-0.4-0.9-0.4-1.7
		V290H0.2v8.5v8.5h5.7v-1.3c0-0.8,0.1-1.2,0.4-1.6c0.3-0.3,0.9-0.4,1.7-0.4h13.1v9.4H8c-0.8,0-1.3-0.1-1.7-0.4
		c-0.3-0.3-0.4-0.9-0.4-1.7v-1.4H0.2v8.7v8.7h5.7v-1.6c0-0.9,0.1-1.4,0.4-1.7c0.3-0.2,1-0.4,2-0.4h32.9c0.8,0,1.3,0.1,1.7,0.4
		c0.3,0.3,0.6,0.9,0.6,1.7v1.4h5.7V318v-8.7h-5.7v1.4c0,0.8-0.1,1.3-0.4,1.7c-0.3,0.3-0.9,0.4-1.7,0.4H27v-9.3h14.4
		c0.8,0,1.3,0.1,1.7,0.4c0.3,0.3,0.4,0.8,0.4,1.6v1.3h5.7v-8.5v-8.5h-5.7v1.6H43.3z"/>
	<path class="st0" d="M30.7,257.3v4.8h2.6c3.7,0,6.2,0.6,7.8,1.8c1.6,1.2,2.2,3.2,2.2,6.1v5.5h-17v-2.9c0-1,0.2-1.7,0.8-2
		c0.6-0.4,1.3-0.6,2.6-0.6H33v-4.8h-9.5H14v4.8h3.4c1.2,0,2.1,0.2,2.7,0.6c0.6,0.4,0.8,1.1,0.8,2v2.9h-15v-5.8c0-2.8,0.7-4.8,2-6
		c1.3-1.1,3.6-1.8,6.7-1.8h2.1v-4.8H8.5H0.3v18.2v13.8H6v-1.6c0-0.9,0.1-1.4,0.4-1.7c0.3-0.2,1-0.4,2-0.4h32.9
		c0.8,0,1.3,0.1,1.7,0.4c0.3,0.3,0.4,0.9,0.4,1.7v1.4h5.7v-13.7V257H40h-9v0.3H30.7z"/>
</g>
</svg>
