<?xml version="1.0" encoding="utf-8"?>
<!-- Generator: Adobe Illustrator 24.2.3, SVG Export Plug-In . SVG Version: 6.00 Build 0)  -->
<svg version="1.1" id="Selfmade_by_NICF-Nettie" xmlns="http://www.w3.org/2000/svg" xmlns:xlink="http://www.w3.org/1999/xlink"
	 x="0px" y="0px" viewBox="0 0 1000 179.4" style="enable-background:new 0 0 1000 179.4;" xml:space="preserve">
<style type="text/css">
	.st0{fill:#DDDDDD;}
</style>
<g id="Actors">
	<g id="T_2_">
	</g>
	<g id="I_2_">
	</g>
	<g id="M_3_">
	</g>
	<g id="R_3_">
	</g>
	<g id="O_2_">
	</g>
	<g id="B_1_">
	</g>
	<g id="B">
	</g>
	<g id="I_1_">
	</g>
	<g id="N_4_">
	</g>
	<g id="S_2_">
	</g>
	<g id="M_2_">
	</g>
	<g id="O_1_">
	</g>
	<g id="G">
	</g>
	<g id="A_3_">
	</g>
	<g id="N_3_">
	</g>
	<g id="F">
	</g>
	<g id="E_4_">
	</g>
	<g id="E_3_">
	</g>
	<g id="M_1_">
	</g>
	<g id="A_2_">
	</g>
	<g id="N_2_">
	</g>
	<g id="R_1_">
	</g>
	<g id="R">
	</g>
</g>
<g id="The_Shawshank_Redemption">
	<g id="S_1_">
		<g>
			<path class="st0" d="M61.3,48.4c-2.9-1.4-4.8-2-8.2-2c-8.9,0-15.4,4.9-15.4,11.3c0,6.2,3,11.2,13,20.6
				c11.6,11,15.9,17.6,15.9,24.8c0,10.5-11.8,19-26.2,19c-5.5,0-10.5-1.1-15.3-3.2l4.1-5.4c3.7,2.4,7,3.4,11.6,3.4
				c10.1,0,18.7-6.2,18.7-13.4c0-5.6-3.8-11.2-16-23.1c-9.8-9.4-13-15-13-21.9c0-9.9,9-16.8,22.1-16.8c2.5,0,4.1,0.2,6.7,0.8
				L61.3,48.4z"/>
		</g>
	</g>
	<g id="R_2_">
		<g>
			<path class="st0" d="M38.6,161.1c-0.5,0-0.9,0-1.2,0H37h-0.4v8.8c0,3.7,0.3,6.2,1,8.6h-5.9c0.7-2.3,0.9-4.9,0.9-8.6v-8.8
				c-0.2,0-0.2,0-0.7,0c-2.1,0.1-3.3,0.1-4.8,0.3v-3c1.6,0.2,2.9,0.3,4.8,0.4c0.4,0,0.4,0,0.7,0v-7.1c0-3.7-0.2-6.3-0.9-8.6h6.8
				c4.6,0,7.2,0.4,9.6,1.4c3.7,1.6,5.9,4.4,5.9,7.6c0,4.6-3.9,7.7-10.8,8.6l8.1,10.2c2.1,2.5,4.4,5.3,6.2,6.8l-4.6,1.6
				c-0.1-0.2-0.2-0.4-0.2-0.5c-1.2-2.1-1.2-2.2-2.1-3.3c-0.6-0.7-1.6-2.1-2.5-3.1l-8.9-11.5L38.6,161.1L38.6,161.1z M37.8,158.8
				c4.1,0,6.7-0.4,8.5-1.3c2.2-1.2,3.6-3.3,3.6-5.5c0-2.5-1.8-4.8-4.8-5.8c-1.5-0.5-3.5-0.8-7-0.8h-1.5v13.5
				C37.2,158.8,37.4,158.8,37.8,158.8z"/>
		</g>
	</g>
	<g id="E_2_">
		<g>
			<path class="st0" d="M136.8,176.3c2.4,0,6.1-0.1,9.1-0.3c2.1-0.1,3.6-0.2,5.1-0.5v3.1h-29c0.7-2.3,0.9-4.9,0.9-8.6v-8.5
				c-0.2,0-0.2,0-0.7,0c-2.1,0.1-3.3,0.1-4.8,0.3v-3c1.6,0.2,2.9,0.2,4.8,0.3c0.4,0,0.4,0,0.7,0v-7.3c0-3.7-0.2-6.3-0.9-8.6h25.7
				v3.1c-1.5-0.2-3.1-0.4-5.2-0.5c-3-0.2-6.8-0.3-9-0.3h-6.6v13.6h8.5h0.2c1.6,0,4.5-0.1,6.7-0.2c1.6-0.1,2.6-0.2,4.1-0.3v3.4
				c-1.5-0.2-2.5-0.2-4.1-0.3c-2.2-0.2-5.1-0.2-6.7-0.2h-0.2h-8.5v14.9L136.8,176.3L136.8,176.3z"/>
		</g>
	</g>
	<g id="D">
		<g>
			<path class="st0" d="M224.4,143.1c9.5,0,14.8,0.7,19.7,2.6c8,3.1,12.2,8.4,12.2,15.1c0,7.1-4.8,12.6-13.6,15.6
				c-4.7,1.6-9.7,2.1-18.4,2.1h-9.6c0.7-2.3,1-4.9,1-8.6v-18.2c0-3.7-0.3-6.3-1-8.6L224.4,143.1L224.4,143.1z M219.7,176.3h3.6
				c9,0,14.5-0.7,18.2-2.1c6.6-2.6,10.6-7.7,10.6-13.3c0-6-4.5-11.3-11.8-13.8c-3.4-1.2-8.9-1.7-17-1.7h-3.6V176.3L219.7,176.3z"/>
		</g>
	</g>
	<g id="E_1_">
		<g>
			<path class="st0" d="M338.4,176.3c2.4,0,6.1-0.1,9.1-0.3c2.1-0.1,3.6-0.2,5.1-0.5v3.1h-29c0.7-2.3,0.9-4.9,0.9-8.6v-8.5
				c-0.2,0-0.2,0-0.7,0c-2.1,0.1-3.3,0.1-4.8,0.3v-3c1.6,0.2,2.9,0.2,4.8,0.3c0.4,0,0.4,0,0.7,0v-7.3c0-3.7-0.2-6.3-0.9-8.6h25.7
				v3.1c-1.5-0.2-3.1-0.4-5.2-0.5c-3-0.2-6.8-0.3-9-0.3h-6.6v13.6h8.5h0.2c1.6,0,4.5-0.1,6.7-0.2c1.6-0.1,2.6-0.2,4.1-0.3v3.4
				c-1.5-0.2-2.5-0.2-4.1-0.3c-2.2-0.2-5.1-0.2-6.7-0.2H337h-8.5v14.9L338.4,176.3L338.4,176.3z"/>
		</g>
	</g>
	<g id="M">
		<g>
			<path class="st0" d="M479.3,169.2c1,2.6,2.4,5.3,4.1,8.1l0.3,0.6l-5.9,1.2c-0.2-2.6-0.9-5.7-2.4-9.4l-7.6-19.5L449,179
				l-18.7-28.8l-7.6,19.5c-1.4,3.7-2.2,6.7-2.4,9.4l-6-1.2l0.4-0.6c1.7-3,3-5.5,4.1-8.1l10.4-27l19.7,30.5l19.8-30.5L479.3,169.2z"
				/>
		</g>
	</g>
	<g id="P">
		<g>
			<path class="st0" d="M549.8,161.2c-2.1,0.1-3.3,0.1-4.8,0.3v-3c1.6,0.2,2.9,0.3,4.8,0.4c0.4,0,0.4,0,0.7,0v-7.1
				c0-3.7-0.2-6.3-0.9-8.6h6.8c4.6,0,7.2,0.4,9.6,1.4c3.7,1.6,5.9,4.4,5.9,7.6c0,3-2.1,5.8-5.2,7.1c-2.9,1.3-6.2,1.7-11.3,1.7H555
				h-0.4v8.8c0,3.7,0.3,6.2,1,8.6h-5.9c0.7-2.3,0.9-4.9,0.9-8.6V161C550.2,161.2,550.2,161.2,549.8,161.2z M555.6,158.8
				c4.1,0,6.7-0.4,8.5-1.3c2.2-1.2,3.6-3.3,3.6-5.5c0-2.5-1.8-4.8-4.8-5.8c-1.5-0.5-3.5-0.8-7-0.8h-1.5v13.5
				C554.9,158.8,555.1,158.8,555.6,158.8z"/>
		</g>
	</g>
	<g id="T_1_">
		<g>
			<path class="st0" d="M650,170c0,3.7,0.3,6.2,0.9,8.6h-5.8c0.7-2.3,0.9-4.9,0.9-8.6v-24.6h-0.7c-4.4,0-8.9,0.2-12.1,0.7v-3h29.6v3
				c-3.3-0.4-7.7-0.7-12.1-0.7H650V170z"/>
		</g>
	</g>
	<g id="I">
		<g>
			<path class="st0" d="M726.7,178.5c0.7-2.3,1-4.9,1-8.6v-18.2c0-3.7-0.3-6.3-1-8.6h5.9c-0.7,2.3-1,4.9-1,8.6v18.2
				c0,3.7,0.3,6.2,1,8.6H726.7z"/>
		</g>
	</g>
	<g id="O">
		<g>
			<path class="st0" d="M826.5,178.8c-14.6,0-26.6-8.1-26.6-17.9c0-9.9,12-17.9,26.6-17.9s26.6,8.1,26.6,17.9
				S841.2,178.8,826.5,178.8z M826.5,145.1c-12.3,0-22.8,7.2-22.8,15.7s10.4,15.7,22.8,15.7s22.8-7.2,22.8-15.7
				C849.4,152.3,838.9,145.1,826.5,145.1z"/>
		</g>
	</g>
	<g id="N_1_">
		<g>
			<path class="st0" d="M924.1,168c0,3.7,0.2,6.2,0.9,8.6h-5.5c0.7-2.3,1-4.9,1-8.6v-27.8l41.1,30.7v-21c0-3.7-0.2-6.3-0.9-8.6h5.5
				c-0.7,2.3-1,4.9-1,8.6v27.7l-41.1-30.7V168z"/>
		</g>
	</g>
	<g id="H_2_">
		<g>
			<path class="st0" d="M104.8,61.9c0-8.2-0.6-14-1.8-19.1h10.7c-1.2,5.2-1.6,10.9-1.6,19.1v16H171v-16c0-8.2-0.5-14-1.6-19.1h10.5
				c-1.2,5.2-1.6,10.9-1.6,19.1V102c0,8.2,0.5,13.8,1.6,19h-10.5c1.2-5.2,1.6-10.8,1.6-19V83h-59v19c0,8.2,0.5,13.8,1.6,19H103
				c1.2-5.2,1.8-10.8,1.8-19V83c-0.6,0.1-0.6,0.1-1.4,0.1c-3.7,0-5.9,0.2-8.9,0.7v-6.6c2.9,0.5,5.2,0.6,8.9,0.7c0.7,0,0.7,0,1.4,0
				V61.9z"/>
		</g>
	</g>
	<g id="H_1_">
		<g>
			<path class="st0" d="M545.4,61.9c0-8.2-0.6-14-1.8-19.1h10.7c-1.2,5.2-1.6,10.9-1.6,19.1v16h58.9v-16c0-8.2-0.5-14-1.6-19.1h10.5
				c-1.2,5.2-1.6,10.9-1.6,19.1V102c0,8.2,0.5,13.8,1.6,19H610c1.2-5.2,1.6-10.8,1.6-19V83h-58.9v19c0,8.2,0.5,13.8,1.6,19h-10.7
				c1.2-5.2,1.8-10.8,1.8-19V83c-0.6,0.1-0.6,0.1-1.4,0.1c-3.7,0-5.9,0.2-8.9,0.7v-6.6c2.9,0.5,5.2,0.6,8.9,0.7c0.7,0,0.7,0,1.4,0
				V61.9z"/>
		</g>
	</g>
	<g id="A_1_">
		<g>
			<path class="st0" d="M238.2,82.9L228,101c-4.1,7.4-4.4,8.1-7.5,14.8c-1.6,3.5-2.3,4.8-3,7.1l-9.6-3.8c4.4-5.2,6.7-8.8,12.7-19
				L230.7,83H230c-5.7,0.1-7.3,0.2-10.5,0.7v-6.6c3.4,0.5,7.1,0.7,12.5,0.7h0.9h0.7l22.8-39.1l33.7,58.6c5,8.7,10.7,17,14.4,21.4
				l-9.6,4.1l-0.6-1.3c-2.9-6.9-3.9-9.1-11-21.6l-9.6-17.1h-35.5V82.9z M256,51.2l-15,26.6h29.9L256,51.2z"/>
		</g>
	</g>
	<g id="A">
		<g>
			<path class="st0" d="M679.8,83l-10.2,18.2c-4.1,7.4-4.4,8.1-7.5,14.8c-1.6,3.5-2.3,4.8-3,7.1l-9.6-3.8c4.4-5.2,6.7-8.8,12.7-19
				l10.1-17.1h-0.7c-5.7,0.1-7.3,0.2-10.5,0.7v-6.6c3.4,0.5,7.1,0.7,12.5,0.7h0.9h0.7l22.9-39l33.7,58.6c5,8.7,10.7,17,14.4,21.4
				l-9.6,4.1l-0.6-1.4c-2.9-6.9-3.9-9.1-11-21.6l-9.7-17.2h-35.5V83z M697.5,51.2l-15,26.6h29.9L697.5,51.2z"/>
		</g>
	</g>
	<g id="N">
		<g>
			<path class="st0" d="M781.6,102.1c0,8.2,0.5,13.8,1.6,19h-10.7c1.2-5.2,1.8-10.8,1.8-19V40.9l79.2,67.5V62c0-8.2-0.5-14-1.6-19.1
				h10.7c-1.2,5.2-1.8,10.9-1.8,19.1v61.1l-79.2-67.5V102.1z"/>
		</g>
	</g>
	<g id="K">
		<g>
			<path class="st0" d="M938.9,56.5c4.6-3.4,10.4-7.7,12.7-9.6c2-1.7,2.6-2.5,3.8-4.1h14.4l-1.8,1.1c-6.7,3.8-12.8,7.6-19.8,12.8
				l-32,23.3l37.2,27.3c6.9,4.9,9.3,6.7,13.9,9.6c3.4,2,4.8,3,7.8,4.2h-16c-1.4-1.9-2.5-3-4.8-5c-3.4-2.7-7.8-6.1-11-8.5l-35.1-26
				v20.6c0,8.2,0.5,13.8,1.6,19H899c1.2-5.2,1.8-10.8,1.8-19V62.1c0-8.2-0.6-14-1.8-19.1h10.7c-1.2,5.2-1.6,10.9-1.6,19.1v17.3
				L938.9,56.5z"/>
		</g>
	</g>
	<g id="T">
		<g>
			<path class="st0" d="M442.4,19.7c0,2.7,0.2,4.6,0.7,6.3h-4c0.5-1.7,0.7-3.6,0.7-6.3V1.6h-0.5c-3.1,0-6.2,0.2-8.4,0.5V0h20.5v2.2
				c-2.3-0.3-5.3-0.5-8.4-0.5h-0.5L442.4,19.7L442.4,19.7z"/>
		</g>
	</g>
	<g id="H">
		<g>
			<path class="st0" d="M486.8,6.3c0-2.7-0.2-4.6-0.7-6.3h4.1c-0.5,1.7-0.7,3.6-0.7,6.3v5.3H512V6.3c0-2.7-0.2-4.6-0.7-6.3h4
				c-0.5,1.7-0.7,3.6-0.7,6.3v13.4c0,2.7,0.2,4.6,0.7,6.3h-4c0.5-1.7,0.7-3.6,0.7-6.3v-6.3h-22.4v6.3c0,2.7,0.2,4.6,0.7,6.3h-4.1
				c0.5-1.7,0.7-3.6,0.7-6.3v-6.3c-0.2,0-0.2,0-0.5,0c-1.4,0-2.3,0.1-3.4,0.2v-2.1c1.1,0.2,2,0.2,3.4,0.2c0.3,0,0.3,0,0.5,0V6.3
				H486.8z"/>
		</g>
	</g>
	<g id="E">
		<g>
			<path class="st0" d="M555.2,24.3c1.6,0,4.2-0.1,6.3-0.2c1.5-0.1,2.5-0.2,3.5-0.4V26h-20c0.5-1.7,0.7-3.6,0.7-6.3v-6.2
				c-0.2,0-0.2,0-0.5,0c-1.4,0-2.3,0.1-3.4,0.2v-2.1c1.1,0.2,2,0.2,3.4,0.2c0.3,0,0.3,0,0.5,0V6.4c0-2.7-0.2-4.6-0.7-6.3h17.8v2.3
				c-1.1-0.2-2.1-0.3-3.6-0.4c-2.1-0.1-4.7-0.2-6.2-0.2h-4.5v10h5.9h0.2c1.1,0,3.1,0,4.7-0.2c1.2,0,1.8-0.1,2.9-0.2v2.5
				c-1.1-0.1-1.7-0.2-2.9-0.2c-1.5-0.1-3.5-0.2-4.7-0.2h-0.2h-5.9v10.9L555.2,24.3L555.2,24.3z"/>
		</g>
	</g>
	<g id="W">
		<g>
			<path class="st0" d="M439,51.9c-1.4,3.4-3.4,8.5-4.4,12.1l-18.9,59.2l-36-69.8l-35.8,69.8L327,67.3c-2.9-9.4-5.9-17.3-9.1-23.1
				l10.1-2.4c0.5,2.7,0.7,4.8,1.6,8.2c1.1,4.7,2.6,10.4,4.4,15.9l11.9,38.4l33.7-65.9l34.5,66.5l13.6-42.6c1.1-3,2.9-9.6,3.9-12.9
				c0.7-3,1.1-4.9,1.4-7.5l10.1,2.4C441.3,47.1,440.4,48.9,439,51.9z"/>
		</g>
	</g>
	<g id="S">
		<g>
			<path class="st0" d="M501.1,48.5c-2.9-1.4-4.8-2-8.2-2c-8.9,0-15.4,4.9-15.4,11.3c0,6.2,3,11.2,13,20.6
				c11.6,11,15.9,17.6,15.9,24.8c0,10.5-11.8,19-26.2,19c-5.5,0-10.5-1.1-15.3-3.2l4.1-5.4c3.7,2.4,7,3.4,11.6,3.4
				c10.1,0,18.7-6.2,18.7-13.4c0-5.6-3.8-11.2-16-23.1c-9.8-9.6-13-15.1-13-22c0-9.9,9-16.8,22.1-16.8c2.5,0,4.1,0.2,6.7,0.8
				L501.1,48.5z"/>
		</g>
	</g>
</g>
</svg>
