<?xml version="1.0" encoding="utf-8"?>
<!-- Generator: Adobe Illustrator 24.2.3, SVG Export Plug-In . SVG Version: 6.00 Build 0)  -->
<svg version="1.1" id="Layer_1" xmlns="http://www.w3.org/2000/svg" xmlns:xlink="http://www.w3.org/1999/xlink" x="0px" y="0px"
	 viewBox="0 0 1000 179" style="enable-background:new 0 0 1000 179;" xml:space="preserve">
<style type="text/css">
	.st0{fill-rule:evenodd;clip-rule:evenodd;fill:#DDDDDD;}
	.st1{fill:#EEEEEE;}
</style>
<g>
	<path class="st0" d="M689.2,26.4c-0.1,0.9-3.3,1.6-5.6,2.6c-3.8,1.6-5.1,3.2-15,2.8c2-2.2,7-3.6,11.1-5.3
		C683.5,26.6,687.1,25.8,689.2,26.4z"/>
	<path class="st0" d="M757.3,30.7c0.9,0,7.7,0.6,7.8,1.6c0.2,1.1-8.1,2-12.8,2.8c-4.5,0.8-10.6,2.4-13.9,2.4c-3,0-7.9-1.4-7.8-1.9
		c0.1-0.6,8.7-2.1,11.1-2.5c5-0.9,8.9-1.8,12.2-2.2C754.8,30.7,756.6,30.7,757.3,30.7z"/>
	<path class="st0" d="M390.6,44.8c-4.6,0.6-9.1-0.3-13.4-0.2c-2.2,0-4,0.5-6.1,0.5c-3.8,0-5.7-0.8-8.4-1.4c-2.6-0.6-6.3-0.9-6.7-1.9
		c0.8-0.6,3.7-0.6,5.6-0.8c2.4-0.3,4.4-0.8,7.8-0.7c3.5,0.1,5.4,1.5,10.1,2c1.3,0.1,2.9,0.1,3.9,0.3C387.2,43.2,390.1,44,390.6,44.8
		z"/>
	<path class="st0" d="M599.6,39.1c3.8,1.1,3.3,3-3.3,3.3c-1.4-0.9-5.8-1.9-5.6-2.8C592.2,39.1,596.6,39.3,599.6,39.1z"/>
	<path class="st0" d="M326.5,45.4c-4.2,2.3-11.5,0.2-13.4-1.4C318.8,42.2,323.8,44,326.5,45.4z"/>
	<path class="st0" d="M336.5,43.3c4.6,0.1,8.3,0.5,11.2,1.1c0,0.7,0,1.5,0,2.2c-3.9,0.2-9.2-0.4-11.7-1.1
		C336.2,44.8,335.4,43.8,336.5,43.3z"/>
	<path class="st0" d="M675.5,49.5c0.4,0.7,0.9,1.3,1.1,2.1c-3.7,0.6-7.6,1.2-12.8,1.5c-0.7-0.6-1.7-1.2-1.7-2.1
		C666.1,50.4,669.5,49.6,675.5,49.5z"/>
	<path class="st0" d="M626.5,50.7c-1.6,2-4.8,4.4-15,3.7c-1.3-0.3,0-0.7,0.6-1c-2.8,0.3-6.1,0.5-10,0.5c2.8-0.6,4.4-2.4,8.3-3
		c2.5-0.4,7.5-0.6,10.6-0.2C622.8,50.7,625.4,50.5,626.5,50.7z"/>
	<path class="st0" d="M169.4,34.5c11.3,0.6,24.9,2.1,36.3,3.2c12,1.1,23.6,2.3,33.5,3.5c-2.2,2.7-4,5.5-8.3,7.6
		c-4.1,0.2-6.4-0.8-8.9-1.4c-14.4-3.5-29.9-7.1-44.7-10.7c-2.7-0.7-5.3-1.2-7.3-1.9C169.7,34.8,169.4,34.7,169.4,34.5z"/>
	<path class="st0" d="M649.9,55.3c0.5,1.9-5.6,2-11.1,2.3C638.4,55.8,645.1,55.8,649.9,55.3z"/>
	<path class="st0" d="M688.4,56.7c-0.3,0.9,0.6,2-0.5,2.7c-4.5-0.2-7.5-0.8-11.2-1.2c0.4-0.8-0.8-2.1,0.5-2.7
		C680.6,55.4,685.4,56.2,688.4,56.7z"/>
	<path class="st0" d="M411.9,61.6c-2.3-0.1-2.9,0.3-5,0.2C407.4,61.4,411.3,60.8,411.9,61.6z"/>
	<path class="st0" d="M418.1,62.2c2,0,0.9,0.9,1.7,1.3c-1.3,0.2-2.7,0.4-4.5,0.5C416.4,63.4,417.4,62.8,418.1,62.2z"/>
	<path class="st0" d="M255.9,67.2c7.8-0.4,30,0.5,41.3,0.8c5.2,0.1,10.4,0,12.8,0.3s5.4,1.3,7.3,1.9c1.1,0.3,2.3,0.7,3.4,1
		c0.9,0.3,2.9,0.6,2.2,1c-6,0.4-11.2-0.4-16.7-0.9c-10.9-0.9-22-1.6-32.9-2.5C267.2,68.4,261.1,67.8,255.9,67.2z"/>
	<path class="st0" d="M347.9,73.8c-1.9,3.6-19.7,2.5-30.6,1.9c1.5-0.5,3.1-1.9,5.6-2.3C329.1,72.3,340.7,73.8,347.9,73.8z"/>
	<path class="st0" d="M229.8,81.7c-1.6,0.7-3.1,1.4-3.9,2.3c3.2,0.5,8,0.8,13.4,1.4c4,0.4,11.2,0.7,12.8,1.5c1.7,0.8-0.5,2,1.1,3.3
		c3.1,0.1,4.9-0.2,7.2-0.4c-1.3-3-2.2-5.1-4.5-8.3C246.8,81.8,237.9,81.2,229.8,81.7z"/>
	<path class="st0" d="M572.1,75.3c2,0.5-1.2,0.9-1.7,1.2C569.1,76.2,572,75.7,572.1,75.3z"/>
	<path class="st0" d="M572.6,77.3c-0.2,0.2-1,0.2-1.1,0.5C570.1,77.8,571.5,77.2,572.6,77.3z"/>
	<path class="st0" d="M561.5,78c0.1,0.6-2,0-2.8,0C559.2,77.6,560.5,78.1,561.5,78z"/>
	<path class="st0" d="M560.9,78.5C559.6,79,558.3,78.1,560.9,78.5L560.9,78.5z"/>
	<path class="st0" d="M571,78.4c-0.5,0.4-0.5,0.9-2.2,0.9c-0.5-0.2-0.7-0.4-0.6-0.7C568.8,78.4,569.7,78.4,571,78.4z"/>
	<path class="st0" d="M602.2,82.9c1.2,0.1,2,0.2,2.2,0.6c-2.2-0.1-2.2,0.4-4.5,0.3C600.4,83.4,601.6,83.2,602.2,82.9z"/>
	<path class="st0" d="M563.8,83.7c0,0.5-1.6,0.6-3.3,0.6C560.2,83.7,562.5,83.8,563.8,83.7z"/>
	<path class="st0" d="M690.3,86.2c-5.4,0.5-10.1-0.1-11.7-1.1C683.8,84.6,689,85.2,690.3,86.2z"/>
	<path class="st0" d="M428.3,87.7c1.9-0.1,2,0.5,1.1,0.7C428.6,88.4,428.3,88.1,428.3,87.7z"/>
	<path class="st0" d="M434.5,88.1c2.1-0.1,1.4,1.1-0.6,0.9C433.5,88.6,434.9,88.6,434.5,88.1z"/>
	<path class="st0" d="M727.7,88.7c3-1.1,3.7-2.7,11.1-2.6c4.4,0,10.9,1.4,15.6,2.1c4.1,0.6,14,1.4,14.5,2.4c0.3,0.5-4.7,2.6-6.7,2.7
		c-3.9,0.3-6.9-0.3-10-0.8C744.7,91.3,733.1,90.1,727.7,88.7z"/>
	<path class="st0" d="M598.4,88.8c5.8,0.6,10.2,1.5,15.1,2.4c0.2,0.7-0.3,1.3-1.1,1.8c-2.8,0-3.9-0.4-5.6-0.7
		c-1.1,0.3-1.8,0.7-3.3,0.9c-2.4-0.2-3.2-0.9-4.5-1.4c-2.3,0.1-3.6,0.5-6.1,0.5c1.2-0.5,4.1-0.6,5-1.2
		C597,90.4,596.5,89.5,598.4,88.8z"/>
	<path class="st0" d="M669.8,90.4c4.6-1.3,12.6-1.3,17.3-0.2c3.6-0.1,4.8-2.2,8.3-2c6.4,0.3,20.2,1.4,20.6,2.2
		c0.2,0.4-7.7,3.2-9.4,3.4c-4.3,0.3-8.9-1-13.9-1.1c-2.5,0-5.3,0.4-6.7,0.4c-3.2-0.1-5.7-0.8-8.4-1.3
		C674.5,91.3,670.6,91.2,669.8,90.4z"/>
	<path class="st0" d="M670.1,71.6c2.8,0.5,7.7,1.1,6.2,2.3c11.3,0.2,21,0.4,33.5,0.4c5.6,0,12.8-0.1,17.3,0.3
		c7.6,0.6,10.3,3.7,20.1,4c1.4-0.6-5.1-1-3.4-1.7c9.3-0.8,16.3-0.1,19,1.8c-2.4,0.4-6.7,0.3-9.5,0.5c2.2,0.6,6.7,0.6,7.3,1.4
		c0.5,0.7-2.3,0.9-2.8,1.8c2.5,1,5.4,1.9,8.4,2.7c2.8,0.8,6.8,1.5,8.4,2.6c-12.1-0.7-21.9-2.6-32.4-3.9c-12.7-1.6-25.5-3.1-38-4.8
		c-0.2,1,2.7,1.2,2.8,2.2c-6.8,0.5-7.9,0.2-10.6-1.2c-1.5-0.8-4-1.4-1.7-2.2c-4.8-1.2-20.3-2-24.6-3.5c0.3,0.1-1.7-1-1.7-1.2
		C668.4,72.6,669.9,72.2,670.1,71.6z"/>
	<path class="st0" d="M368.2,93.6c-4.4,1.8-10.8,3-23.4,2.7c-0.8-0.6,2.5-1,4.4-1.4C353.5,94.1,358.1,93.4,368.2,93.6z"/>
	<path class="st0" d="M377.7,94.7c-2.1,1.2-8.2,2.9-13.4,1.6C366.9,95.2,372.4,93.5,377.7,94.7z"/>
	<path class="st0" d="M548.8,94.3C544.9,95,543.6,93.8,548.8,94.3L548.8,94.3z"/>
	<path class="st0" d="M737.3,95c-1.7,0.4-5.5,1.9-8.3,2c-5.1,0.2-11-1.3-14.5-1.9c2.2-0.3,6.1-2.2,8.9-2C727.2,93.2,735,94,737.3,95
		z"/>
	<path class="st0" d="M611.3,97.6c0,0.5-2.9,0.3-3.9,0.6C605.8,97.9,609.2,97.5,611.3,97.6z"/>
	<path class="st0" d="M445.2,99.5c-0.2,0.8-1,1.2,0,1.9c2.3,0,4-1.3,7.2-1.6c1.2,0.8,4.4,1.7,3.9,2.6c-0.5,0.9-4.4,1.5-7.2,1.8
		c-1-0.8-2.4-1.5-3.4-2.3c-4,1.1-2.2,3.4-5.5,4.9c-2.2,0.4-7,0.7-10,0.4c-0.4-1.1,1.9-1.6,1.7-2.7c-4.1,0.3-7.6,1.3-12.3,1
		c-1.1-0.5-0.3-1.5-0.6-2.2c-1.1,0.3-3.1,0.1-4.5,0.3c-2.4,0.3-3.1,1.3-5.6,1.7c-3.4,0.5-6.3,0.2-10.6,0.4c2.9-1,4.3-2.6,9.4-3.2
		c1.6-0.2,4.2,0,6.1-0.2c2.6-0.2,3.9-0.8,6.1-1.1c1.8-0.1,0.8,0.5,2.2,0.4C429.5,100.9,437.1,99.5,445.2,99.5z"/>
	<path class="st0" d="M544.4,99.4C540.8,99.9,539.4,99,544.4,99.4L544.4,99.4z"/>
	<path class="st0" d="M585.1,99.8c0.1,0.5-7.7,0.4-6.7,0.2C579.8,99.7,582.9,99.9,585.1,99.8z"/>
	<path class="st0" d="M594,100c-0.6,0.4-2.5,0.5-4.5,0.5C590.1,100.1,592.4,100.1,594,100z"/>
	<path class="st0" d="M797,107c-5.1,0.3-10.5-0.5-15.1-0.9s-9.4-1-11.7-2c1.3-1.3-2.4-2.4,0.5-3.7c6,0.5,23.6,1.5,25.7,2.7
		C798.1,104.2,796.1,105.7,797,107z"/>
	<path class="st0" d="M518.8,106.3c0.6,0.4,2,0.6,1.7,1.3c-2.7,0.2-5,0.4-8.4,0.4c-0.6-0.4-2-0.6-1.7-1.3
		C513.1,106.5,515.5,106.3,518.8,106.3z"/>
	<path class="st0" d="M404.6,110.1c-1.5,0.8-3.8,1.5-5.6,2.3c-2.7-0.1-4.7-0.3-6.7-0.5C393.8,110.2,399,108.7,404.6,110.1z"/>
	<path class="st0" d="M252.9,110.9c2.5,0.6-0.7,1.2-1.7,1.9c-1.4,1-2.5,2.6-4.4,3.6c-0.6,0.3-2.2,0.6-2.8,0.9c-1.7,1-1.7,2.2-3.9,3
		c-1.5,0.5-5.8,1.2-8.3,1.6c-4.6,0.6-10.4,1.1-15.6,1.8c-5.2,0.7-10.3,1.6-15.6,1.5c2.6-2.8,6.7-4.7,10.5-7.4
		c1.3-0.9,2.6-2.2,4.4-2.7c2.8-0.9,10.5-1.5,17.3-2.2C240.2,112,247.1,111.3,252.9,110.9z"/>
	<path class="st0" d="M609.7,108.9c-6,0.4-14.7,1.7-20.1,0.5C595.5,109,605.6,107.5,609.7,108.9z"/>
	<path class="st0" d="M389,112.7c0.6,0.8-1,1.1-1.1,1.8c1.1,0.8,4.2,1,4.5,1.7s-2.5,1.8-3.9,2.7c-1.6,1-2.7,2-4.4,2.6
		c-4.8-0.8-6.7-2.4-11.2-3.3c-2-0.1-2.1,0.3-3.9,0.3c-5-0.5-7.5-2.5-2.3-3.5c-0.6-0.3-2.5-0.2-2.2-0.7c2.4-1.5,7-2.5,10.6-3.8
		C383.2,110.3,385.5,111.7,389,112.7z"/>
	<path class="st0" d="M350,112.5c2.9,0,3-0.6,5.6-0.6c2.3,0.4,6.9,0.7,7.3,1.4c0.5,1-5.7,1.8-9.4,2.8c-2.5,0.6-6.2,2.4-10.6,2.5
		c-2.6,0.1-3.9-0.7-6.1-0.7c-4.3,0-5.5,1.3-8.9,1.1c-0.8-1.5-4.7-2.4-1.2-3.7c3.2-1.2,15.9-2.8,20-3.9c0.6,0,1.1,0,1.7,0
		C349,111.7,349.7,112,350,112.5z"/>
	<path class="st0" d="M666.3,137c-2.8-0.2-4.9-1.1-7.3-1.9c-2.2-0.7-5.3-1.4-5.6-2.2c-0.5-1.3,2.9-2.6,4.4-3.9
		c2.8,0.2,12.2,2.8,12.9,3.9C671.5,134.4,668.7,135.8,666.3,137z"/>
	<path class="st0" d="M232.6,137c-0.4-1.4-0.6-3.9,2.7-4.8c2.4-0.6,9.3-1.2,14.5-1.8c6-0.7,10-1.4,14.5-1.8c3.8-0.3,3.5,2.5,2.3,3.5
		c-1.9,1.6-13.3,2.7-19.5,3.4C241.9,136.4,236.5,137.1,232.6,137z"/>
	<path class="st0" d="M466.1,145.6c2.8,1.9-4.1,3.4-8.3,4.7c-7.3,2.2-13,4-20,6.1c-3.4,1-6.8,2-10.6,2.8c1.8-2.6,5.2-5.2,8.3-7.6
		c3.3-2.6,6.7-5.4,10.5-7.8C453.2,144.2,460.1,144.8,466.1,145.6z"/>
	<path class="st0" d="M614.1,41.8c9.7-1.9-6.2-7.6,6.1-8.4c3.7-0.2,9.2,0.8,14.5,1.1c2,0.1,4.5,0,6.1,0.1c2.3,0.1,5.4,0.5,8.4,0.7
		c2.8,0.1,7.8,0.5,9.5,0.4c5.4-0.4,5.6-2.9,12.2-2.8c2.1,0.9,0,3.1,3.9,3.5c-2.5,0.8,0.1,1.6-0.5,2.4c-1,1.2-10.1,3.3-13.9,4.4
		c-3.1,0.9-4.8,1.8-10,2c-1.7-1.7-3.1-3.4-2.8-5.6c-6.3,0.2-14,1.3-20.6,2c-0.4,1.3-3.5,2-5.5,2.9c7,2.6,9.5,6.5,10.7,10.7
		c-3.3-3.5-7.4-6.8-12.9-9.7c-2.2,0-2.4,0.9-4.5,0.5c-0.5-3.4-6.1-5.4-12.3-7.2C606.4,39.2,610,40.9,614.1,41.8z"/>
	<path class="st0" d="M541.1,100C539.6,100.4,537.8,99.6,541.1,100L541.1,100z"/>
</g>
<g>
	<path class="st0" d="M391.1,0c1.5,1.3,2.6,4.3,4.5,7.2c1.4,2.1,3.7,4.4,3.9,6.1c0.3,2.4-1.5,4.6-1.7,7.4c-1.3-1.2-2.1-3.1-3.4-4.9
		c-1.1-1.6-3-3.2-3.4-4.9C390.2,7.6,391.7,3.5,391.1,0z"/>
	<path class="st0" d="M294.9,19.2c-2.6,0.1-5-1.2-7.3-2c-7-2.5-14.5-5.1-21.7-7.7c1.6-0.8,4.1-1.5,5.9-2c1.2-0.3,4.8,2,6.5,2.8
		c5.1,2.5,9.9,4.4,14.6,7.2C293.6,17.8,295.6,17.9,294.9,19.2z"/>
	<path class="st0" d="M247.4,18.7c-3.2-0.1-6.3-1.6-9.6-2.6c-3.2-1-6.4-1.9-9.6-2.8c1.8-0.9,5-1.7,6.7-1.8c2.2,0.9,4.4,2.2,6.5,3.3
		C243.5,16,246,16.9,247.4,18.7z"/>
	<path class="st0" d="M261.7,24.3c10.1,0,21.7,0,32.3,0c3.6,0,7.5-0.6,10.4,0c1.3,0.3,4.4,2.1,5.9,2.8c3.8,1.9,7.1,3.8,11.2,5.9
		c2,1,4.1,2.6,5.6,2.8c2.7,0.4,6-1,8.4-0.8c-1.4-1.4-3.5-2-5.3-2.8c-5.3-2.5-11-5.2-16.6-7.7c35.2-0.4,72.5-0.4,107.7,0
		c2.5,13,7,23.8,18.3,28.9c3.7,1.7,8.4,2.6,13.2,3.3c4.6,0.7,9.6,1.7,14.3,2c2.7,0.2,5.9-0.3,8.7,0.3c2.6,0.5,3.5,3,6.2,3.8
		c0.5-1.1-0.3-3.1-0.6-4.4c0.6-1.1,2-1.6,2.2-3.1c1.4-7.2,0.7-18.6,3.1-25.3c1.3,2.4,1.5,5.4,2.2,8.2c0.7,2.7,1.7,5.2,2.5,7.7
		c6.1-0.9,13.3-1,19.4,0c2.4-4.4,3.3-10.3,4.8-15.6c1.2,0.4,1.2,2.1,1.4,3.1c1.1,5,0.7,12.9,1.7,18.9c0.3,1.7,0.3,3.8,0.8,4.6
		c1.9,2.8,11.9,2.2,16,1.8c12.2-1.1,25.2-2.9,32.6-8.4c7.9-5.9,11.3-15.5,13.5-25.9c11.6-0.6,24.5-0.1,36.6-0.3
		c2,0.6,4.9,4.9,7.3,5.4c1.5,0.3,4.3-0.5,6.7-1c2.1-0.5,4.4-1.1,6.2-1.5c4.4-1,9.1-2.4,12.7-2.8c6.9-0.8,14.9,0,22.8,0
		c21.6,0,46.8,0,67.5,0c-0.9,1.1-2.7,1.1-3.9,1.5c-8.6,3-17.5,7.3-25.3,11.5c-9.1,4.9-17.8,10.2-24.5,17.4c5-0.1,11.3-1.1,16.9-1.5
		c-1.4,1.4-3.3,2.7-5.3,4.1c-1.6,1.1-4.1,3.3-5.9,3.6c-1.7,0.3-3.5-0.7-5.1-0.5c-3.5,0.5-5.1,4-9,3.8c-1.4,1-1.7,3-3.1,4.1
		c-10,0.2-20.3,0.1-30.7,0.5c8.2,3.6,17.4,6.3,26.2,9.5c-1.5,4.7-2.5,10.5-2.5,16.6c-0.1,5.9,1.2,11.9,2,16.4
		c-8.4-3-16-6.8-24.5-9.7c1.3,3.2,5.7,5.7,7.6,9.2c-76.6-3.3-136.3,13.1-152.7,66.3c-1-1.2-1.6-3-2.3-4.6
		c-4.3-11.2-10.6-21.3-18.8-29.4c2.4-1.5,5.2-2.6,7-4.6c-0.5-1.6-2.2-2.1-3.4-3.1c-1.1-1-2-2.3-3.7-2.8c-2.3,1.5-3.6,4-6.2,5.4
		c-6.9-5.7-15.1-10.2-23.9-14.1c7-3.5,14.2-6.7,21.4-10c0.3-1.3,1-2.2,1.1-3.6c-2.8-0.3-7.1,0.2-10.1,0.5c3-4.2,7.5-7.2,10.4-11.5
		c-4.2-0.1-7.7,0.3-11.2,0.5c-3.8,0.2-7.8-0.4-11.8,0.5c-2.3,0.5-5,2.5-7.3,3.8c-2.5,1.4-5.2,3.7-7,4.1c-5,1.1-10.7-0.8-15.5,0
		c-2.1,0.3-3.7,1.7-5.6,2.6c-1.7,0.7-4.2,2.1-5.9,2.3c-2,0.2-4.6-0.7-7.3-1c-9.9-1.1-19.7-1.4-30.7-1.5c0.2-1.6,2-2.4,3.1-3.6
		c3.1-3.4,6.7-7.4,9.6-11.3c-10.5,4-21.2,8.9-31.8,13.3c-1.4,0.6-3.2,1.6-4.5,1.8c-3.1,0.5-6.8,0.1-10.1,0.3
		c-1.9,0.1-3.7,0.7-5.6,0.3c4.5-15.1,1.1-35.4-6.7-45.6c8.6-0.1,15.7,0,23.6,0.3c-2.5-1.4-5.3-2-7.9-2.8c-6.4-2-13.3-4-20-6.1
		c-1.3-0.4-2.9-0.7-3.9-1.3c-2.1-1.1-3.6-3.5-5.6-5.1c-13.5-11.1-30.2-19-48.9-25.9C261.8,24.9,261.8,24.6,261.7,24.3z"/>
	<path class="st0" d="M279.7,40.2c5.1,0.2,10.9-0.3,15.5,0.3c-0.3,2.2-1,3.9-1.1,6.1c-3.9-1.1-7.2-3.1-11-4.6
		C282,41.5,280.2,41.4,279.7,40.2z"/>
	<path class="st0" d="M774.7,46.6c-0.3,1-1.7,1.1-2.5,1.5c-3.2,1.7-7.1,3.7-10.7,5.6c-1.8,0.9-3.2,1.7-5.3,2.8
		c-0.9,0.4-2.1,1.2-2.5,1.3c-2,0.3-5.3-0.8-7.9-1c-8.1-0.8-16.1-1.5-24.2-2.6c0.3-0.7,1.4-0.8,2-1c4.4-1.6,9.4-3.3,14.3-5.1
		c5.6-2.1,11.6-3.8,16.6-5.9c0.4-0.2,0.5-0.6,1.1-0.5C761.5,42.5,768.1,45.3,774.7,46.6z"/>
	<path class="st0" d="M718.1,53.8c0.7,0.1,1.1,0.4,2,0.3c-0.2,0.8-1,0.9-2,1C717.8,54.7,717.8,54.1,718.1,53.8z"/>
	<path class="st0" d="M693.1,77.3c-1.7,0-3,0.9-4.5,1.3s-3.7,1-4.8,1c-2.1,0-3.3-1.6-5.6-1.5c1.3-1.4,4.5-2.2,6.8-3.1
		c2.7-1,3.4-0.9,5.9,0.5C691.6,76,692.6,76.7,693.1,77.3z"/>
	<path class="st0" d="M711.7,108.6c-2.6,3.5-6,6.1-11,7.4c-5.2-1.6-10.2-3.8-14.9-6.1c-0.7-0.3-2.4-0.4-2-1.5
		C692.7,107.8,702.2,108.8,711.7,108.6z"/>
	<path class="st0" d="M368.9,113.9c0.5-0.1,0.5,0.2,0.6,0.5c-1.3,1.2-2,2.9-3.4,4.1c-4.8-0.2-10.3,0.3-14.6-0.3c0-0.4,0.1-1-0.3-1
		c0.5-1.4,2.5-1.1,3.9-1.3C359.1,115.4,364.6,114.6,368.9,113.9z"/>
	<path class="st0" d="M363,179c1.4-3.5,2.1-9.8,0.8-14.1c1.6-2.5,2.6-4.2,5.9-5.6c9.3-4,19-7.5,28.4-11.5c1-0.4,1.9-1.1,2.8-1.5
		c5.6-2.4,11.6-4.5,17.2-6.9c-11.4,8.4-22.8,16.7-34.3,25.1c-4.6,3.3-9.1,6.6-13.8,10C367.9,176,365.6,177.9,363,179z"/>
</g>
<g>
	<path class="st1" d="M193.2,76.5h-20V84h15.7v6.9h-15.7v8h20v7.2h-30V69.6h30V76.5z"/>
</g>
<g>
	<path class="st1" d="M280.1,68.7h12.8c5.2,0,9.1,0.6,11.7,1.9s4.9,3.2,6.9,6c2,2.7,3,6.1,3,10.3c0,5.2-1.8,9.6-5.3,13.1
		s-8.4,5.2-14.6,5.2h-14.4V68.7H280.1z M289.8,75.4v22.9h4c3.6,0,6.2-1.2,8-3.5c1.7-2.3,2.6-5.1,2.6-8.2c0-2.2-0.5-4.3-1.5-6.1
		c-1-1.9-2.2-3.2-3.7-4s-3.2-1.1-5.3-1.1L289.8,75.4L289.8,75.4z"/>
</g>
<g>
	<path class="st1" d="M372.4,69.6l13.1,36.5H375l-2.6-7.5h-13.6l-2.6,7.5h-8.6L361,69.6L372.4,69.6L372.4,69.6z M361.2,91.8h8.9
		L365.7,79L361.2,91.8z"/>
</g>
<g>
	<path class="st1" d="M431.7,91.6v14.5h-9.9V69.6h18.4c3.4,0,6.1,0.3,8.2,1s3.8,1.9,5.1,3.8c1.4,1.8,2,3.9,2,6.1
		c0,4.4-2.4,7.5-7.3,9.4l7.7,16.1H445l-6.4-14.5h-6.9V91.6z M431.7,76v9.3h6c2,0,3.4-0.1,4.3-0.4c0.9-0.2,1.7-0.8,2.4-1.6
		c0.7-0.8,1-1.8,1-2.8s-0.3-1.9-1-2.7c-0.7-0.8-1.5-1.3-2.3-1.5s-2.4-0.3-4.6-0.3H431.7z"/>
</g>
<g>
	<path class="st1" d="M502.3,69.6v17.1l13.2-17.1h9.4l-10.1,13l12.6,23.4h-10.8l-8.4-15.8l-5.9,7.5v8.4h-9.7V69.6L502.3,69.6
		L502.3,69.6z"/>
</g>
<g>
	<path class="st1" d="M621.8,69.6v17.1L635,69.6h9.4l-10.1,13l12.6,23.4h-10.8l-8.4-15.8l-5.9,7.5v8.4h-9.7V69.6L621.8,69.6
		L621.8,69.6z"/>
</g>
<g>
	<path class="st1" d="M714.4,69.6v36.5H706l-16.4-24.6c0,0.6,0,1,0.1,1.2c0.1,0.6,0.1,1.1,0.1,1.6v21.8h-7.7V69.6h10.6L707,91.1
		c-0.1-1.1-0.2-1.9-0.2-2.4V69.6L714.4,69.6L714.4,69.6z"/>
</g>
<g>
	<path class="st1" d="M836,86.5V106h-4.5c-0.3-1.4-0.8-2.8-1.4-4.2c-3,3.2-6.8,4.8-11.4,4.8c-5.5,0-9.7-1.7-12.8-5.1
		c-3-3.4-4.6-7.8-4.6-13.2c0-5.8,1.6-10.5,4.9-14c3.2-3.5,7.7-5.3,13.2-5.3c4.7,0,8.4,1.1,11.3,3.4c2.9,2.3,4.6,5.3,5.3,9.1
		l-9.3,1.1c-0.8-4.4-3.2-6.6-7.2-6.6c-2.7,0-4.7,1-6,3.1c-1.4,2.1-2,5.1-2,9c0,3.7,0.7,6.6,2.2,8.6s3.6,3,6.3,3
		c1.8,0,3.3-0.5,4.7-1.5s2.1-2.6,2.1-4.8h-7.9v-6.9H836z"/>
</g>
<g>
	<path class="st1" d="M763.6,69.6v36.5h-9.8V69.6L763.6,69.6L763.6,69.6z"/>
</g>
<g>
	<path class="st1" d="M907.4,69.6v36.5h-9.7v-15h-13.1v15H875V69.6h9.7v14.2h13.1V69.6L907.4,69.6L907.4,69.6z"/>
</g>
<g>
	<path class="st1" d="M975,69.6v7.2h-10.4v29.3h-10V76.8h-10.5v-7.2L975,69.6L975,69.6z"/>
</g>
<g>
	<path class="st1" d="M55.8,69.6v7.2H45.4v29.3h-10V76.8H25v-7.2L55.8,69.6L55.8,69.6z"/>
</g>
<g>
	<path class="st1" d="M124.8,69.6v36.5h-9.7v-15H102v15h-9.7V69.6h9.7v14.2h13.1V69.6L124.8,69.6L124.8,69.6z"/>
</g>
</svg>
