<?xml version="1.0" encoding="utf-8"?>
<!-- Generator: Adobe Illustrator 24.2.3, SVG Export Plug-In . SVG Version: 6.00 Build 0)  -->
<svg version="1.1" id="Layer_1" xmlns="http://www.w3.org/2000/svg" xmlns:xlink="http://www.w3.org/1999/xlink" x="0px" y="0px"
	 viewBox="0 0 24 24" style="enable-background:new 0 0 24 24;" xml:space="preserve">
<style type="text/css">
	.st0{fill:none;}
	.st1{fill:#121212;}
</style>
<path class="st0" d="M0,0h24v24H0V0z"/>
<path class="st1" d="M6.8,5.3L5,3.5L3.6,5l1.8,1.8L6.8,5.3z M4,11H1v2h3V11z M13,1h-2V4h2C13,4,13,1,13,1z M20.5,5L19,3.5l-1.8,1.8
	l1.4,1.4L20.5,5z M17.2,18.7l1.8,1.8l1.4-1.4l-1.8-1.8C18.6,17.3,17.2,18.7,17.2,18.7z M20,11v2h3v-2H20z M12,6c-3.3,0-6,2.7-6,6
	s2.7,6,6,6s6-2.7,6-6S15.3,6,12,6z M11,23h2v-3h-2V23z M3.6,19L5,20.5l1.8-1.8l-1.4-1.4L3.6,19z"/>
</svg>
