<?xml version="1.0" encoding="utf-8"?>
<!-- Generator: Adobe Illustrator 24.2.1, SVG Export Plug-In . SVG Version: 6.00 Build 0)  -->
<svg version="1.1" id="Layer_2" xmlns="http://www.w3.org/2000/svg" xmlns:xlink="http://www.w3.org/1999/xlink" x="0px" y="0px"
	 viewBox="0 0 800 800" style="enable-background:new 0 0 800 800;" xml:space="preserve">
<style type="text/css">
	.st0{fill:#121212;}
</style>
<path class="st0" d="M400,0C179.1,0,0,179.1,0,400s179.1,400,400,400s400-179.1,400-400S620.9,0,400,0z M400.2,78.2
	c55.9,0,101.3,45.3,101.3,101.3c0,55.9-45.3,101.3-101.3,101.3s-101.3-45.3-101.3-101.3C298.9,123.6,344.3,78.2,400.2,78.2z
	 M73.6,344.3c0-55.9,45.3-101.3,101.3-101.3c55.9,0,101.3,45.3,101.3,101.3c0,55.9-45.3,101.3-101.3,101.3
	C118.9,445.6,73.6,400.2,73.6,344.3z M266.7,693c-55.9,0-101.3-45.3-101.3-101.3s45.3-101.3,101.3-101.3
	c55.9,0,101.3,45.3,101.3,101.3S322.6,693,266.7,693z M399.9,454.8c-29.7,0-53.9-24.1-53.9-53.9c0-29.7,24.1-53.9,53.9-53.9
	c29.7,0,53.9,24.1,53.9,53.9C453.7,430.7,429.6,454.8,399.9,454.8z M533.4,693c-55.9,0-101.3-45.3-101.3-101.3
	s45.3-101.3,101.3-101.3s101.3,45.3,101.3,101.3S589.3,693,533.4,693z M625.4,445.4c-55.9,0-101.3-45.3-101.3-101.3
	s45.3-101.3,101.3-101.3c55.9,0,101.3,45.3,101.3,101.3S681.3,445.4,625.4,445.4z"/>
</svg>
