<?xml version="1.0" encoding="utf-8"?>
<!-- Generator: Adobe Illustrator 24.2.3, SVG Export Plug-In . SVG Version: 6.00 Build 0)  -->
<svg version="1.1" id="Layer_1" xmlns="http://www.w3.org/2000/svg" xmlns:xlink="http://www.w3.org/1999/xlink" x="0px" y="0px"
	 viewBox="0 0 95 105" style="enable-background:new 0 0 95 105;" xml:space="preserve">
<style type="text/css">
	.st0{fill:#DDDDDD;}
	.st1{fill:#EEEEEE;}
</style>
<path class="st0" d="M27.6,101.1c0,0,17.6,10,31.8-6.7c4.1-5.4,4.3-10,4.3-10s12.4,1.3,22.7-9s8.1-22.4,7.9-24
	c-0.1-1.5-1.7-8.6-5-12C86,36.1,27.5,94.1,27.6,101.1z"/>
<path class="st1" d="M61.3,26.7c0,0,14.1-0.9,21.9,6.2s8.8,9.2,7.2,19.3s-9.6,15.8-12.2,17.4s-10.9,5-16.9,4.1s-8.5-2.2-8.5-2.2
	s2.4,10.8-3.5,18.2C43.3,97,38.6,98.6,37,99.2c-1.6,0.6-9.3,2-9.4,1.9c-0.1,0-23.5-12.7-6.9-36.4c0,0-14.8,0.2-19.1-12.3
	s7.4-22.5,10.9-22.9c0,0-2.5-11,4.6-19.1s14.3-9.9,19.5-9.8S61.1,3.4,61.3,26.7z"/>
</svg>
