<?xml version="1.0" encoding="utf-8"?>
<!-- Generator: Adobe Illustrator 24.2.3, SVG Export Plug-In . SVG Version: 6.00 Build 0)  -->
<svg version="1.1" id="Layer_1" xmlns="http://www.w3.org/2000/svg" xmlns:xlink="http://www.w3.org/1999/xlink" x="0px" y="0px"
	 viewBox="0 0 24 24" style="enable-background:new 0 0 24 24;" xml:space="preserve">
<style type="text/css">
	.st0{fill:#121212;}
</style>
<g>
	<path class="st0" d="M5.5,8.6c1.9-3.6,6.3-5,9.9-3.2c1.1,0.6,2,1.4,2.7,2.3L20.5,7c-0.9-1.5-2.2-2.9-3.9-3.7
		C11.7,0.8,5.8,2.7,3.3,7.5L0,5.8l2.1,6.6l6.6-2.1L5.5,8.6z"/>
	<path class="st0" d="M21.9,11.6l-6.6,2.1l3.3,1.7c-1.9,3.6-6.3,5-9.9,3.2c-1.1-0.6-2-1.4-2.7-2.3L3.5,17c0.9,1.5,2.2,2.9,3.9,3.7
		c4.8,2.5,10.7,0.6,13.2-4.2l3.3,1.7L21.9,11.6z"/>
	<path class="st0" d="M12,15.7c-0.7,0-1.3,0.6-1.3,1.3c0,0.7,0.6,1.3,1.3,1.3c0.7,0,1.3-0.6,1.3-1.3C13.3,16.2,12.8,15.7,12,15.7z"
		/>
	<path class="st0" d="M15.2,10.5c0.7-1.1,0.4-2.5,0-3.2c-0.5-0.9-1.6-1.6-3.1-1.6c-1.9,0-3.1,1.2-3.6,2.6l1.7,0.7
		c0.2-0.7,0.8-1.5,1.9-1.5c1.7,0,2,1.6,1.4,2.4c-0.6,0.8-1.5,1.4-2.1,2.3c-0.4,0.7-0.3,1.6-0.3,2.1H13c0-1,0.1-1.2,0.2-1.5
		C13.6,12.1,14.4,11.7,15.2,10.5z"/>
</g>
</svg>
