<?xml version="1.0" encoding="utf-8"?>
<!-- Generator: Adobe Illustrator 24.2.3, SVG Export Plug-In . SVG Version: 6.00 Build 0)  -->
<svg version="1.1" id="Layer_1" xmlns="http://www.w3.org/2000/svg" xmlns:xlink="http://www.w3.org/1999/xlink" x="0px" y="0px"
	 viewBox="0 0 24 24" style="enable-background:new 0 0 24 24;" xml:space="preserve">
<style type="text/css">
	.st0{fill:#121212;}
</style>
<g>
	<path class="st0" d="M6.8,6.8c2.9-2.9,7.5-2.9,10.4,0c0.9,0.9,1.5,1.9,1.8,3l2.5,0c-0.4-1.7-1.3-3.4-2.6-4.8
		c-3.8-3.8-10.1-3.8-13.9,0L2.5,2.5l0,6.9l6.9,0L6.8,6.8z"/>
	<path class="st0" d="M21.5,14.6l-6.9,0l2.6,2.6c-2.9,2.9-7.5,2.9-10.4,0c-0.9-0.9-1.5-1.9-1.8-3l-2.5,0c0.4,1.7,1.3,3.4,2.6,4.8
		c3.8,3.8,10.1,3.8,13.9,0l2.6,2.6L21.5,14.6z"/>
</g>
</svg>
